<?xml version="1.0" standalone="no"?>
<!DOCTYPE svg PUBLIC "-//W3C//DTD SVG 1.1//EN" "http://www.w3.org/Graphics/SVG/1.1/DTD/svg11.dtd" >
<svg xmlns="http://www.w3.org/2000/svg">
<metadata></metadata>
<defs>
<font id="clearviewhwy-3-wregular" horiz-adv-x="1489" >
<font-face units-per-em="2048" ascent="1638" descent="-410" />
<missing-glyph horiz-adv-x="848" />
<glyph horiz-adv-x="1059" />
<glyph horiz-adv-x="1059" />
<glyph unicode="&#xd;" horiz-adv-x="848" />
<glyph unicode=" "  horiz-adv-x="848" />
<glyph unicode="&#x09;" horiz-adv-x="848" />
<glyph unicode="&#xa0;" horiz-adv-x="848" />
<glyph unicode="!" horiz-adv-x="728" d="M212 115q0 61 43 97t108 36q68 0 110.5 -37t42.5 -96q0 -62 -43 -100.5t-107 -38.5q-68 0 -111 37.5t-43 101.5zM232 1414h267l-38 -998h-192z" />
<glyph unicode="&#x22;" horiz-adv-x="1021" d="M170 1484h260l-54 -468h-160zM591 1484h260l-53 -468h-160z" />
<glyph unicode="#" horiz-adv-x="1412" d="M156 526l18 171h212l34 282h-212l23 169h213l33 266h184l-34 -266h247l38 266h180l-35 -266h200l-24 -169h-199l-41 -282h213l-25 -171h-214l-36 -280h-186l39 280h-238l-38 -280h-178l36 280h-210zM567 697h243l39 282h-249z" />
<glyph unicode="$" horiz-adv-x="1132" d="M141 180l80 193q81 -61 164 -94t172 -33q100 0 154 42.5t54 128.5q0 61 -29 100t-94 76l-221 113q-61 31 -109 64t-80.5 72t-50 88t-17.5 111t17 118t54 100t92.5 73t134.5 40v158h217v-158q68 -7 132 -27t128 -52l-64 -193q-72 47 -139.5 69t-148.5 22q-89 0 -140.5 -34 t-51.5 -103q0 -28 8.5 -50t27.5 -41.5t49.5 -37.5t72.5 -40l199 -100q117 -58 178 -141.5t61 -212.5q0 -66 -17.5 -125.5t-55 -107.5t-97 -81.5t-142.5 -45.5v-169h-218v169q-79 7 -162 34.5t-158 74.5z" />
<glyph unicode="%" horiz-adv-x="1816" d="M156 1035q0 93 18 167.5t55 126t93 80t131 28.5q74 0 128.5 -29t91.5 -81.5t55.5 -126.5t18.5 -165q0 -93 -18 -168t-54.5 -128t-92.5 -81.5t-132 -28.5t-132 29t-92 82t-53 128t-17 167zM317 1032q0 -55 5.5 -103t20.5 -82.5t40.5 -55t66.5 -20.5q42 0 67.5 19.5 t40.5 55t20 83.5t5 103t-5 103.5t-20 84t-40.5 56t-67.5 20.5q-41 0 -66.5 -20.5t-40.5 -56t-20.5 -83.5t-5.5 -104zM429 0l777 1414h176l-775 -1414h-178zM1068 383q0 93 18.5 168.5t56 128.5t93 81t130.5 28q74 0 129 -29t92 -82t55 -128t18 -167t-17.5 -167t-55 -127 t-93.5 -80.5t-132 -28.5t-131.5 29t-91.5 82t-53.5 127.5t-17.5 164.5zM1230 383q0 -55 6 -103t21 -82.5t40 -55t66 -20.5t68 19.5t42 54.5t20.5 82.5t5.5 104.5q0 55 -5.5 103.5t-20.5 83.5t-42 55.5t-68 20.5t-67 -20.5t-41 -55.5t-20 -83.5t-5 -103.5z" />
<glyph unicode="&#x26;" horiz-adv-x="1325" d="M156 424q0 137 58.5 228t164.5 119v5q-89 35 -135 112t-46 181q0 91 30.5 159.5t85.5 115t131.5 70.5t168.5 24q136 0 266 -58l-58 -178q-41 21 -88.5 34t-99.5 13q-103 0 -155 -50.5t-52 -143.5q0 -55 18.5 -92t52.5 -59.5t82.5 -31.5t109.5 -9h166v179h219v-179h165 v-195h-161v-184q0 -105 -22 -197t-74 -160t-140 -107.5t-219 -39.5q-117 0 -205 31t-146 89t-87.5 140t-29.5 184zM385 434q0 -264 239 -264q72 0 117 19t70.5 58t35 99t9.5 141v181h-246q-57 0 -99.5 -11.5t-70 -38.5t-41.5 -72t-14 -112z" />
<glyph unicode="'" horiz-adv-x="599" d="M170 1484h260l-54 -468h-160z" />
<glyph unicode="(" horiz-adv-x="666" d="M156 676q0 123 9.5 239.5t31 235t54.5 239.5t80 252l165 -44q-33 -119 -56 -231t-37.5 -224t-22.5 -227t-8 -240q0 -126 7 -240.5t22.5 -225.5t39 -223.5t55.5 -232.5l-165 -44q-45 132 -78.5 252.5t-54.5 238t-31.5 234.5t-10.5 241z" />
<glyph unicode=")" horiz-adv-x="666" d="M170 -246q33 120 56.5 233t38.5 224t22 226t7 239t-7 239t-22.5 227.5t-39 224.5t-55.5 231l165 44q44 -129 77.5 -248.5t55 -237.5t32.5 -236t11 -244t-11.5 -244.5t-33.5 -237t-54.5 -238.5t-76.5 -249z" />
<glyph unicode="*" horiz-adv-x="923" d="M141 1187l58 182l196 -97l4 5l-40 207h201l-35 -205l4 -6l192 99l61 -184l-215 -24v-8l154 -145l-158 -113l-95 191h-10l-93 -192l-159 111l155 148v8z" />
<glyph unicode="+" horiz-adv-x="1162" d="M141 474v206h333v333h215v-333h332v-206h-332v-352h-215v352h-333z" />
<glyph unicode="," horiz-adv-x="601" d="M141 -269l63 495h256l-167 -495h-152z" />
<glyph unicode="-" horiz-adv-x="875" d="M198 506v229h479v-229h-479z" />
<glyph unicode="." horiz-adv-x="577" d="M141 117q0 62 42.5 100t106.5 38t105 -38t41 -100q0 -64 -41 -102.5t-105 -38.5t-106.5 39t-42.5 102z" />
<glyph unicode="/" horiz-adv-x="1060" d="M85 -245l683 1729h208l-689 -1729h-202z" />
<glyph unicode="0" horiz-adv-x="1349" d="M156 710q0 163 31 297t94.5 229.5t161 148t230.5 52.5q134 0 232.5 -52.5t162 -148t95 -229.5t31.5 -297q0 -160 -30 -294.5t-93 -232t-161 -152.5t-237 -55t-237 55t-160 152.5t-91 232t-29 294.5zM397 706q0 -122 13 -220t45 -168t85 -108.5t133 -38.5q79 0 133 38.5 t86.5 108.5t46 168t13.5 220q0 112 -11.5 210t-42 171t-84.5 114.5t-141 41.5q-85 0 -138.5 -41.5t-84 -114.5t-42 -171t-11.5 -210z" />
<glyph unicode="1" horiz-adv-x="844" d="M71 1074l370 346h191v-1420h-227v1106h-9l-215 -205z" />
<glyph unicode="2" horiz-adv-x="1114" d="M99 214q150 151 266 270t194.5 217t118.5 181t40 163q0 38 -9 73t-30 61.5t-56 43t-86 16.5q-86 0 -157.5 -42.5t-143.5 -122.5l-124 172q103 98 207.5 144.5t236.5 46.5q89 0 162.5 -24t126 -71.5t81.5 -119.5t29 -168q0 -92 -31.5 -180.5t-102 -187.5t-186.5 -217 t-287 -270l611 3v-202h-826z" />
<glyph unicode="3" horiz-adv-x="1104" d="M85 98l89 182q41 -28 78 -48.5t73 -35t72.5 -20.5t77.5 -6q52 0 97 13.5t76.5 43t49.5 76t18 113.5q0 119 -53 172.5t-167 53.5h-154v195h63q134 0 207 47t73 157q0 93 -49.5 146t-157.5 53q-74 0 -143 -28t-138 -82l-92 175q52 34 101.5 59t98.5 41t99 24t107 8 q89 0 163 -23.5t128 -71.5t83.5 -119.5t29.5 -167.5q0 -105 -42.5 -178.5t-138.5 -118.5v-4q115 -31 165 -118.5t50 -226.5q0 -99 -29 -179t-86.5 -136.5t-143.5 -87t-201 -30.5t-213 29t-191 93z" />
<glyph unicode="4" horiz-adv-x="1212" d="M99 482l559 932h260v-920h181v-200h-181v-294h-241v294h-521zM328 494h359l2 637h-4z" />
<glyph unicode="5" horiz-adv-x="1138" d="M127 95l98 181q61 -50 126.5 -78t144.5 -28q132 0 193.5 80t61.5 232q0 300 -232 300q-72 0 -126.5 -31t-99.5 -99l-154 119l97 643h668v-206h-481l-55 -324l3 -3q45 42 98 61.5t121 19.5q184 0 288.5 -121.5t104.5 -353.5q0 -245 -121.5 -378t-352.5 -133 q-110 0 -201.5 27.5t-180.5 91.5z" />
<glyph unicode="6" horiz-adv-x="1236" d="M170 642q0 181 27.5 328t89 251t160.5 160t240 56q89 0 163.5 -20.5t150.5 -62.5l-82 -177q-57 34 -109 51t-114 17q-66 0 -119.5 -25t-91.5 -80t-59 -145t-24 -220h4q40 72 110 109.5t167 37.5q96 0 172.5 -31t129.5 -89.5t81.5 -143.5t28.5 -191q0 -109 -32 -199.5 t-90.5 -155.5t-141.5 -100.5t-186 -35.5q-126 0 -216.5 47.5t-148 135t-84 210t-26.5 273.5zM419 454q0 -129 57 -206t170 -77q110 0 166 79t56 212q0 129 -54 201t-168 72q-106 0 -166.5 -74.5t-60.5 -206.5z" />
<glyph unicode="7" horiz-adv-x="1086" d="M99 1208v206h843l31 -208q-76 -75 -134 -142t-100.5 -139t-71 -151.5t-45.5 -177.5t-24 -220.5t-7 -276.5v-99h-244v72q0 146 10.5 298t50 299t114.5 283.5t205 251.5v4h-628z" />
<glyph unicode="8" horiz-adv-x="1257" d="M156 409q0 132 50.5 216t162.5 132v5q-93 52 -134 122.5t-41 180.5q0 178 110 275t324 97q100 0 181 -22.5t137.5 -69.5t87 -117t30.5 -163q0 -109 -40.5 -179.5t-135.5 -123.5v-5q113 -48 163.5 -132t50.5 -216q0 -205 -117.5 -319t-353.5 -114t-355.5 114t-119.5 319z M392 403q0 -117 56 -179.5t183 -62.5q115 0 175 57t60 189q0 116 -54 182t-184 66q-48 0 -91 -12t-75 -41t-51 -78t-19 -121zM424 1047q0 -100 51 -155t153 -55q103 0 154.5 55t51.5 155q0 103 -48 154.5t-155 51.5t-157 -50t-50 -156z" />
<glyph unicode="9" horiz-adv-x="1238" d="M141 952q0 105 32.5 194t93 153t145 101t189.5 37q120 0 208.5 -47.5t146.5 -137t85.5 -221.5t27.5 -300q0 -180 -29 -320.5t-91 -236.5t-160.5 -147t-238.5 -51q-93 0 -168.5 22.5t-153.5 73.5l90 173q64 -41 115.5 -59.5t119.5 -18.5q74 0 127.5 28t89.5 87.5 t54.5 152.5t18.5 223h-4q-41 -85 -111 -127.5t-165 -42.5q-93 0 -171 34t-134 94.5t-86.5 146.5t-30.5 189zM371 956q0 -126 55.5 -198.5t166.5 -72.5q55 0 97.5 19.5t70.5 55.5t43 86.5t15 111.5q0 64 -13.5 116t-41 90t-69.5 58.5t-100 20.5q-106 0 -165 -77t-59 -210z " />
<glyph unicode=":" horiz-adv-x="577" d="M141 117q0 62 42.5 100t106.5 38t105 -38t41 -100q0 -64 -41 -102.5t-105 -38.5t-106.5 39t-42.5 102zM141 859q0 64 42.5 101t106.5 37t105 -37t41 -101t-41 -102.5t-105 -38.5t-106.5 38.5t-42.5 102.5z" />
<glyph unicode=";" horiz-adv-x="633" d="M141 -279l67 514h264l-172 -514h-159zM187 888q0 65 44.5 104.5t110.5 39.5t108 -39.5t42 -104.5t-41.5 -104.5t-108.5 -39.5q-66 0 -110.5 39.5t-44.5 104.5z" />
<glyph unicode="&#x3c;" horiz-adv-x="1330" d="M141 468v202l1020 469v-197l-814 -371l814 -376v-195z" />
<glyph unicode="=" horiz-adv-x="1046" d="M141 250v201h764v-201h-764zM141 646v201h764v-201h-764z" />
<glyph unicode="&#x3e;" horiz-adv-x="1330" d="M170 0v195l816 374l-816 373v197l1019 -469v-202z" />
<glyph unicode="?" horiz-adv-x="1089" d="M127 1310q50 34 96.5 58t93 39.5t97 22.5t105.5 7q98 0 172 -26t125 -75t77 -119t26 -158q0 -134 -52 -221t-156 -146l-89 -58q-25 -16 -38.5 -27.5t-20.5 -25.5t-8.5 -33.5t-1.5 -53.5v-112h-218v158q0 48 4.5 81.5t17 57t36 42.5t61.5 40l83 48q38 21 67.5 43.5 t47.5 49.5t27.5 60.5t9.5 77.5q0 93 -51 148t-149 55q-76 0 -141 -29t-129 -84zM293 117q0 62 41.5 98.5t103.5 36.5q64 0 106 -37t42 -98q0 -64 -41 -102.5t-104 -38.5q-64 0 -106 39t-42 102z" />
<glyph unicode="@" horiz-adv-x="1632" d="M156 685q0 175 56.5 315t154.5 237t229.5 148.5t283.5 51.5q124 0 233 -37.5t189.5 -112.5t127.5 -190.5t47 -269.5q0 -140 -33.5 -239t-84.5 -161t-113 -91t-120 -29q-24 0 -49 6.5t-47.5 21t-39 38t-21.5 57.5h-4q-41 -59 -101.5 -90.5t-125.5 -31.5q-112 0 -181 83 t-69 247q0 83 20 164.5t60 145t103 102.5t151 39q62 0 101.5 -22t65.5 -67h4l8 71h166l-65 -570q-4 -25 10.5 -47.5t50.5 -22.5q27 0 60.5 21.5t62 69t48.5 125t20 190.5q0 116 -33.5 207.5t-95 153t-148 94t-193.5 32.5q-140 0 -251 -47t-187.5 -131.5t-117.5 -204 t-41 -265.5q0 -147 36 -259.5t104 -188t165 -114.5t218 -39q117 0 212 34.5t175 102.5l58 -106q-98 -79 -214 -111.5t-242 -32.5q-141 0 -259.5 44.5t-204 134.5t-132.5 225.5t-47 318.5zM661 621q0 -88 29.5 -129t93.5 -41q81 0 116.5 54t45.5 139l17 151q4 31 1.5 59.5 t-15.5 49t-39 32.5t-68 12q-181 0 -181 -327z" />
<glyph unicode="A" horiz-adv-x="1342" d="M85 0l438 1419h287l447 -1419h-257l-99 328h-467l-96 -328h-253zM479 532h375l-184 662h-8z" />
<glyph unicode="B" horiz-adv-x="1299" d="M212 0v1406q98 11 204 17.5t218 6.5q93 0 180.5 -17t156.5 -59.5t110.5 -116t41.5 -186.5q0 -119 -47.5 -192.5t-149.5 -110.5v-5q64 -13 110 -44t76.5 -77t45.5 -104.5t15 -124.5q0 -393 -443 -393h-518zM450 185q54 -3 100 -3h101q68 0 119.5 7.5t86 31.5t53 67.5 t18.5 118.5q0 78 -22.5 124.5t-61 71t-90 32t-108.5 7.5q-55 0 -103.5 -2t-92.5 -5v-450zM451 819q40 -3 85 -3.5t95 -0.5q68 0 115 9t78.5 34t45.5 65.5t14 104.5q0 113 -60 162.5t-190 49.5q-41 0 -91.5 -2.5t-91.5 -8.5v-410z" />
<glyph unicode="C" horiz-adv-x="1261" d="M156 710q0 141 32.5 273t102.5 233t179.5 161t264.5 60q130 0 232 -49.5t201 -148.5l-144 -165q-34 38 -66.5 68.5t-66.5 51t-72 31t-84 10.5q-83 0 -146 -36t-104 -104t-61.5 -165.5t-20.5 -219.5q0 -93 15 -188t53 -171.5t102.5 -124.5t164.5 -48q93 0 165.5 42.5 t147.5 123.5l126 -166q-89 -93 -199 -147.5t-247 -54.5q-154 0 -263 56.5t-178 155.5t-101.5 232.5t-32.5 289.5z" />
<glyph unicode="D" horiz-adv-x="1377" d="M212 0v1406q44 4 95 9t104 8t105.5 5t98.5 2q153 0 267.5 -49.5t189.5 -143t112.5 -226t37.5 -297.5q0 -161 -36 -293t-111.5 -225.5t-192.5 -144.5t-278 -51h-392zM451 195q41 -1 72 -1h65q98 0 169.5 29.5t119.5 93t71.5 163.5t23.5 240q0 105 -15 199t-54 165.5 t-106 113t-172 41.5q-42 0 -87.5 -2t-86.5 -8v-1034z" />
<glyph unicode="E" horiz-adv-x="1118" d="M212 0v1414h760v-203h-521v-372h471v-205h-471v-435h540v-199h-779z" />
<glyph unicode="F" horiz-adv-x="1070" d="M212 0v1414h746v-203h-507v-378h457v-205h-457v-628h-239z" />
<glyph unicode="G" horiz-adv-x="1390" d="M156 706q0 144 33.5 276.5t104.5 233.5t180.5 161t260.5 60q69 0 128 -14t110.5 -38t97 -58t87.5 -72l-140 -167q-64 68 -128 107.5t-152 39.5q-103 0 -168 -49.5t-102.5 -126.5t-51 -170.5t-13.5 -182.5t12 -184t48 -174t101 -130t170 -51q86 0 140.5 34t85 90.5t41 128 t10.5 147.5h-268v200h492v-139q0 -134 -24 -253t-82 -207.5t-155 -140t-244 -51.5q-151 0 -259.5 59.5t-178.5 160t-103 232.5t-33 278z" />
<glyph unicode="H" horiz-adv-x="1386" d="M212 0v1414h239v-553h484v553h239v-1414h-239v635h-484v-635h-239z" />
<glyph unicode="I" horiz-adv-x="666" d="M212 0v1414h242v-1414h-242z" />
<glyph unicode="J" horiz-adv-x="957" d="M85 72l93 180q52 -41 93.5 -57.5t94.5 -16.5q76 0 107.5 47.5t31.5 142.5v1046h240v-1046q0 -92 -20.5 -165t-63.5 -124t-110 -77.5t-162 -26.5q-91 0 -164.5 23t-139.5 74z" />
<glyph unicode="K" horiz-adv-x="1244" d="M212 0v1414h239l-1 -625h8l405 625h284l-407 -601l434 -813h-273l-327 638l-124 -166l1 -472h-239z" />
<glyph unicode="L" horiz-adv-x="1026" d="M212 0v1414h239v-1210h477v-204h-716z" />
<glyph unicode="M" horiz-adv-x="1581" d="M212 0v1414h228l351 -591l352 591h226v-1414h-232l3 973h-7l-342 -571l-341 568h-7l3 -970h-234z" />
<glyph unicode="N" horiz-adv-x="1462" d="M212 0v1414h235l567 -973h6v973h230v-1414h-230l-573 965h-4l3 -965h-234z" />
<glyph unicode="O" d="M156 709q0 161 36 295.5t108.5 230.5t183 149t260.5 53q149 0 260 -53t183.5 -149t109.5 -230.5t37 -295.5q0 -164 -37 -299.5t-110.5 -231.5t-184.5 -149t-258 -53q-149 0 -260 52.5t-183.5 148.5t-108.5 231t-36 301zM403 709q0 -117 16.5 -215.5t55 -169.5t105 -110.5 t167.5 -39.5q98 0 162.5 40.5t103.5 111.5t54.5 169.5t15.5 213.5q0 116 -15.5 213.5t-55 168t-105 110t-164.5 39.5t-164.5 -39.5t-104 -110t-55 -168t-16.5 -213.5z" />
<glyph unicode="P" horiz-adv-x="1281" d="M212 0v1406q93 11 196 17t217 6q112 0 204.5 -23t158.5 -75t102 -138.5t36 -215.5q0 -225 -107.5 -341.5t-345.5 -116.5h-222v-519h-239zM451 714h187q64 0 109.5 10.5t76 39.5t45.5 79t15 131q0 74 -12.5 123.5t-42.5 80.5t-77.5 44.5t-116.5 13.5q-42 0 -86.5 -3.5 t-97.5 -7.5v-511z" />
<glyph unicode="Q" d="M156 709q0 160 34.5 293.5t106.5 230.5t183 150.5t264 53.5t264 -53.5t183 -150.5t107.5 -230.5t35.5 -293.5q0 -93 -12 -183t-39.5 -170t-73.5 -148t-113 -119v-3q30 -8 51 -23t43 -32t50.5 -33t74.5 -26l-75 -177q-71 4 -127 34t-103 63.5t-86 61.5t-74 28 q-23 0 -42 -3t-47 -3q-156 0 -269.5 51.5t-188.5 147t-111 231.5t-36 303zM403 709q0 -116 15.5 -214.5t55 -169t106 -111t167.5 -40.5q98 0 162.5 41t103.5 113t55.5 169.5t16.5 212.5q0 116 -15.5 213t-54.5 167.5t-105.5 110t-166.5 39.5t-166 -39.5t-104.5 -111 t-54 -169t-15.5 -211.5z" />
<glyph unicode="R" horiz-adv-x="1292" d="M212 0v1406q109 13 210 18t209 5q106 0 197 -23t157.5 -72.5t104 -130t37.5 -195.5q0 -141 -50 -232t-159 -138v-3q13 -6 23.5 -30.5t18.5 -45.5l191 -559h-254l-159 501q-14 37 -28 52.5t-48 15.5h-211v-569h-239zM451 761h207q55 0 97.5 12t71.5 39.5t43.5 73 t14.5 111.5q0 120 -59 181t-192 61q-48 0 -93 -3t-90 -7v-468z" />
<glyph unicode="S" horiz-adv-x="1145" d="M113 113l88 195q76 -58 163 -98t189 -40q45 0 87 10.5t74.5 35t52 65t19.5 98.5q0 55 -21.5 94t-58 68.5t-83.5 53t-98 44.5q-66 28 -131.5 59.5t-118.5 77.5t-85.5 112.5t-32.5 166.5q0 98 36 169.5t95.5 118t136.5 69t161 22.5q110 0 202.5 -28t184.5 -82l-69 -198 q-72 54 -143 84t-156 30q-44 0 -82.5 -9.5t-67.5 -31t-46 -54.5t-17 -80q0 -45 21 -77.5t56.5 -58t82 -46t99.5 -41.5q65 -27 130 -60.5t118 -83t86 -120t33 -172.5q0 -112 -34 -192.5t-94 -133.5t-143.5 -78.5t-182.5 -25.5q-136 0 -243 35.5t-208 101.5z" />
<glyph unicode="T" horiz-adv-x="1065" d="M85 1208v206h895v-206h-328v-1208h-240v1208h-327z" />
<glyph unicode="U" horiz-adv-x="1401" d="M212 573v841h239v-857q0 -86 10 -156t37 -119t75.5 -75.5t128.5 -26.5q78 0 126.5 26.5t75.5 75.5t36 119t9 156v857h240v-841q0 -144 -24 -255.5t-80.5 -187t-150.5 -115t-232 -39.5q-140 0 -234.5 39t-151 114.5t-80.5 186.5t-24 257z" />
<glyph unicode="V" horiz-adv-x="1268" d="M99 1414h256l279 -1168h4l280 1168h252l-395 -1414h-283z" />
<glyph unicode="W" horiz-adv-x="1910" d="M127 1414h255l196 -1145h5l264 1145h222l262 -1144h7l197 1144h249l-303 -1414h-277l-246 1027h-8l-244 -1027h-280z" />
<glyph unicode="X" horiz-adv-x="1240" d="M85 0l393 734l-349 680h273l229 -502h7l228 502h267l-358 -696l381 -718h-266l-268 535h-1l-266 -535h-270z" />
<glyph unicode="Y" horiz-adv-x="1220" d="M71 1414h261l280 -657l282 657h256l-419 -865v-549h-239v539z" />
<glyph unicode="Z" horiz-adv-x="1128" d="M127 0v194l583 1014h-554v206h831v-192l-590 -1023h604v-199h-874z" />
<glyph unicode="[" horiz-adv-x="772" d="M198 -250v1884h405v-150h-194v-1583h194v-151h-405z" />
<glyph unicode="\" horiz-adv-x="1053" d="M85 1485h201l683 -1730h-198z" />
<glyph unicode="]" horiz-adv-x="770" d="M170 -99h193v1583h-193v150h403v-1884h-403v151z" />
<glyph unicode="^" horiz-adv-x="997" d="M85 1230l411 231l416 -231l-113 -168l-301 166l-304 -166z" />
<glyph unicode="_" horiz-adv-x="1253" d="M99 -174h1055v-157h-1055v157z" />
<glyph unicode="`" horiz-adv-x="619" d="M76 1523l200 104l267 -265l-130 -74z" />
<glyph unicode="a" horiz-adv-x="1254" d="M156 322q0 129 59 212t152.5 130t208 65t223.5 18v42q0 48 -5.5 87t-22.5 66t-49 41t-84 14q-103 0 -196.5 -29.5t-178.5 -79.5l-61 176q107 57 215.5 85.5t233.5 28.5q109 0 182.5 -25.5t117 -75.5t62 -125t18.5 -174v-514q0 -34 2 -55.5t9 -38t20.5 -29t36.5 -26.5 l-146 -129q-54 16 -87.5 44.5t-46.5 88.5h-6q-68 -68 -153.5 -106t-187.5 -38q-76 0 -135.5 25t-99.5 72t-60.5 110.5t-20.5 139.5zM385 335q0 -42 9 -77.5t28 -61.5t49 -41t71 -15q68 0 133 30.5t123 88.5v336q-76 0 -150.5 -10.5t-132.5 -39.5t-94 -80t-36 -130z" />
<glyph unicode="b" horiz-adv-x="1287" d="M212 0v1535h234v-495h4q42 76 110.5 107t153.5 31q110 0 189.5 -45t129.5 -125t74 -190.5t24 -239.5q0 -110 -21 -218t-70 -193.5t-128.5 -138.5t-195.5 -53q-93 0 -161 38.5t-118 123.5h-7l-27 -137h-191zM446 446q0 -59 11 -113t37 -94t68 -63t101 -23q71 0 116.5 35 t70.5 94.5t35 136t10 158.5q0 88 -7.5 164.5t-31.5 132t-69.5 88t-121.5 32.5q-103 0 -161 -61.5t-58 -185.5v-301z" />
<glyph unicode="c" horiz-adv-x="1108" d="M156 577q0 120 28 229t89 192t156.5 131.5t229.5 48.5q95 0 182 -30.5t165 -89.5l-94 -177q-55 55 -111.5 82t-135.5 27q-83 0 -135.5 -39t-82.5 -98.5t-40.5 -131.5t-10.5 -140q0 -71 11.5 -145t41.5 -135.5t82.5 -100.5t134.5 -39q81 0 144.5 28.5t125.5 76.5l74 -171 q-85 -59 -172.5 -89.5t-191.5 -30.5q-134 0 -227.5 49.5t-151.5 132t-84.5 192t-26.5 228.5z" />
<glyph unicode="d" horiz-adv-x="1289" d="M156 578q0 129 24 239.5t75.5 190.5t130.5 125t190 45q85 0 153.5 -31t113.5 -105h1v493h234v-1535h-204l-14 136h-6q-54 -83 -120 -122t-160 -39q-116 0 -196 53t-129.5 138.5t-71 193.5t-21.5 218zM396 577q0 -81 9 -157t34.5 -135t71 -94t116.5 -35q62 0 104.5 23 t68 62t36.5 90t11 107v309q0 124 -58 185t-162 61q-75 0 -120.5 -32.5t-70 -88.5t-32.5 -132.5t-8 -162.5z" />
<glyph unicode="e" horiz-adv-x="1250" d="M156 577q0 151 36 263.5t101.5 187.5t155.5 112.5t199 37.5q219 0 333 -147t114 -444v-42q0 -27 -3 -51h-696q0 -332 274 -333q78 0 146.5 22.5t146.5 76.5l72 -175q-93 -59 -183 -84.5t-193 -25.5q-123 0 -217 41.5t-157.5 119.5t-96 189.5t-32.5 251.5zM395 662h482 q-1 69 -11 130.5t-35.5 107.5t-69 73t-110.5 27q-119 0 -187.5 -85.5t-68.5 -252.5z" />
<glyph unicode="f" horiz-adv-x="834" d="M127 932v194h146v95q0 89 13.5 151t50 101t101 56.5t165.5 17.5q28 0 57.5 -2.5t60.5 -7.5v-174q-23 3 -44 6t-45 3q-38 0 -63.5 -6.5t-39.5 -21t-19.5 -39t-5.5 -59.5v-120h203v-191h-199v-935h-235v932h-146z" />
<glyph unicode="g" horiz-adv-x="1294" d="M156 583q0 113 19.5 219.5t68.5 190t129.5 134.5t202.5 51q92 0 162 -34.5t116 -115.5h5l14 128h209v-1166q0 -106 -20.5 -188.5t-70.5 -138.5t-133 -85t-207 -29q-117 0 -223 25.5t-199 74.5l65 191q86 -47 171 -71.5t183 -24.5q57 0 95 10t62 35.5t34.5 67t10.5 105.5 v203h-7q-50 -74 -115.5 -107.5t-153.5 -33.5q-105 0 -182.5 38t-130.5 109.5t-79 175.5t-26 236zM396 590q0 -64 8.5 -132t32.5 -124.5t69.5 -93t117.5 -36.5q69 0 113 29.5t69.5 75.5t34.5 102t9 109v214q0 55 -13.5 102.5t-41 82t-70 55t-98.5 20.5q-71 0 -116.5 -31.5 t-71 -87t-34.5 -129t-9 -156.5z" />
<glyph unicode="h" horiz-adv-x="1305" d="M212 0v1535h234v-488h1q52 75 128 103t165 28q105 0 173.5 -32.5t108.5 -94.5t55.5 -152.5t15.5 -205.5v-693h-234v662q0 66 -3 124t-20.5 101.5t-56 68t-107.5 24.5q-122 0 -174 -70.5t-52 -203.5v-706h-234z" />
<glyph unicode="i" horiz-adv-x="663" d="M184 1448q0 59 39 95.5t107 36.5t108.5 -36.5t40.5 -95.5q0 -61 -41 -97t-108 -36q-68 0 -107 36t-39 97zM214 0v1156h234v-1156h-234z" />
<glyph unicode="j" horiz-adv-x="670" d="M-57 -245q30 -1 57 -2t51 -1q64 0 98.5 18.5t50.5 52.5t19.5 83.5t3.5 113.5v1136h234v-1150q0 -100 -16.5 -184t-59 -144t-114.5 -93t-184 -33q-71 0 -140 12v191zM192 1448q0 62 41 97t106 35q64 0 106 -35t42 -97t-42 -97.5t-106 -35.5q-65 0 -106 35.5t-41 97.5z" />
<glyph unicode="k" horiz-adv-x="1176" d="M212 0v1535h234v-900h5l352 521h268l-336 -480l357 -676h-263l-256 516l-130 -165v-351h-231z" />
<glyph unicode="l" horiz-adv-x="719" d="M212 236v1299h234v-1242q0 -35 4.5 -56.5t16.5 -33t32 -15t51 -3.5h57v-185q-33 -7 -76.5 -10t-80.5 -3q-66 0 -111.5 13t-73 42t-40.5 76t-13 118z" />
<glyph unicode="m" horiz-adv-x="1882" d="M212 0v1156h209l16 -124h4q45 72 109.5 109t165.5 37q96 0 167.5 -36t110.5 -125q59 93 136.5 127t176.5 34t168 -29t113 -87t63 -145t19 -203v-714h-232v680q0 65 -4.5 120.5t-23 95t-54 62t-96.5 22.5q-102 0 -152.5 -65t-50.5 -188v-727h-232v685q0 64 -4.5 118 t-22 93.5t-53 61.5t-96.5 22q-105 0 -154 -66.5t-49 -186.5v-727h-234z" />
<glyph unicode="n" horiz-adv-x="1304" d="M212 0v1156h205l20 -124h3q50 81 127 113.5t171 32.5q106 0 174 -32.5t108.5 -94t56 -152t15.5 -206.5v-693h-233v659q0 69 -3 128t-20.5 102t-56 67t-107.5 24q-123 0 -174.5 -71.5t-51.5 -202.5v-706h-234z" />
<glyph unicode="o" horiz-adv-x="1298" d="M156 577q0 133 29.5 243.5t90.5 190t154 123.5t221 44q124 0 216 -42.5t153.5 -121t92 -189.5t30.5 -248q0 -136 -30.5 -247t-91.5 -190t-153.5 -122t-216.5 -43q-126 0 -219 43t-154.5 121.5t-91.5 190t-30 247.5zM396 577q0 -93 11.5 -169.5t40.5 -131.5t77.5 -85 t125.5 -30q75 0 124.5 30t78.5 85t40 131.5t11 169.5q0 81 -10 156t-37.5 131.5t-77 90.5t-129.5 34q-81 0 -130.5 -34t-77 -90.5t-37.5 -131t-10 -156.5z" />
<glyph unicode="p" horiz-adv-x="1288" d="M212 -436v1592h205l19 -124h1q50 78 119 112t160 34q123 0 203.5 -55t128 -142t66.5 -192.5t19 -207.5q0 -68 -8.5 -139t-28.5 -139t-51.5 -127.5t-78.5 -104t-110 -70.5t-145 -26q-88 0 -151.5 31t-109.5 104h-4v-546h-234zM443 450q0 -55 10.5 -108t36 -94.5t68 -66.5 t105.5 -25q78 0 124.5 43.5t70 108t30.5 137.5t7 132q0 64 -5 137.5t-27.5 135.5t-70 103t-130.5 41q-58 0 -100 -19.5t-68.5 -55t-38.5 -82t-12 -99.5v-288z" />
<glyph unicode="q" horiz-adv-x="1292" d="M156 581q0 110 20.5 217t69 192t128.5 136.5t200 51.5q91 0 163 -32.5t117 -113.5h2l14 124h212v-1292q0 -41 2 -69t10.5 -48.5t25.5 -34t45 -25.5l-140 -165q-59 17 -93.5 44.5t-53.5 65t-25 85t-6 103.5v293h-8q-45 -72 -111 -105t-152 -33q-110 0 -189.5 48 t-130.5 130t-75.5 192t-24.5 236zM396 577q0 -79 9 -154.5t34.5 -135t71 -95.5t117.5 -36q65 0 107.5 26.5t67 70t34.5 98t10 109.5v275q0 259 -219 259q-76 0 -122 -32.5t-70 -88t-32 -132t-8 -164.5z" />
<glyph unicode="r" horiz-adv-x="899" d="M212 0v1156h211l17 -140h1q45 85 111.5 123.5t174.5 38.5h59v-218h-60q-65 0 -117 -12t-88 -40t-55.5 -76t-19.5 -122v-710h-234z" />
<glyph unicode="s" horiz-adv-x="1055" d="M113 89l78 181q69 -50 156 -80t175 -30q89 0 134.5 34t45.5 113q0 38 -20 65.5t-53.5 49.5t-76.5 39.5t-90 36.5q-57 23 -112.5 47t-100.5 61.5t-73.5 95.5t-28.5 148q0 81 29.5 141.5t83 102.5t126 63t159.5 21q92 0 181 -18.5t169 -59.5l-55 -183q-59 37 -130.5 55 t-146.5 18q-41 0 -76.5 -5t-61 -18.5t-39.5 -36.5t-14 -59q0 -35 19 -60t52.5 -44.5t76.5 -36t90 -34.5q57 -23 113 -50t102 -67t74.5 -99.5t28.5 -147.5q0 -92 -28.5 -159t-81.5 -111t-128.5 -65.5t-169.5 -21.5q-112 0 -215 30t-192 84z" />
<glyph unicode="t" horiz-adv-x="833" d="M85 932v194h160v322h227v-322h220v-194h-220v-614q0 -42 5 -68.5t20.5 -41t47 -19.5t84.5 -5h63v-185q-41 -6 -80 -9t-79 -3q-96 0 -153.5 19t-88.5 61t-41 107t-10 157v601h-155z" />
<glyph unicode="u" horiz-adv-x="1292" d="M212 417v739h234v-669q0 -71 4.5 -129t23 -100t55.5 -65t100 -23q120 0 168.5 71.5t48.5 213.5v701h235v-1156h-214l-14 122h-6q-50 -72 -120.5 -109.5t-177.5 -37.5q-86 0 -149 23t-105 75.5t-62.5 136.5t-20.5 207z" />
<glyph unicode="v" horiz-adv-x="1125" d="M85 1156h246l236 -966h6l228 966h240l-328 -1156h-293z" />
<glyph unicode="w" horiz-adv-x="1726" d="M113 1156h242l170 -928h5l227 928h213l227 -930h5l176 930h236l-270 -1156h-268l-209 809h-8l-211 -809h-269z" />
<glyph unicode="x" horiz-adv-x="1134" d="M85 0l341 604l-303 552h260l194 -408h4l194 408h241l-303 -546l336 -610h-260l-222 454h-5l-221 -454h-256z" />
<glyph unicode="y" horiz-adv-x="1139" d="M85 1156h247l242 -910h4l234 910h243l-379 -1224q-33 -99 -65.5 -171t-74 -119.5t-97.5 -70t-136 -22.5q-33 0 -66 2t-74 8v196q17 -3 43 -4t54 -1q37 0 63 6t45.5 23t33.5 47.5t28 80.5l25 85z" />
<glyph unicode="z" horiz-adv-x="1007" d="M127 0v175l484 787h-471v194h730v-191l-477 -771h487v-194h-753z" />
<glyph unicode="{" horiz-adv-x="801" d="M141 590v171q64 13 84 60t20 117v410q0 82 14 136.5t46 87.5t80.5 47.5t119.5 14.5h113v-150h-44q-42 0 -66 -8.5t-37 -28.5t-15.5 -53t-2.5 -84v-405q0 -42 -4.5 -74t-16 -58t-30.5 -48.5t-50 -48.5q31 -27 50 -49.5t30.5 -48.5t16 -57.5t4.5 -74.5v-382q0 -54 3.5 -88 t16 -54t36.5 -27.5t65 -7.5h44v-150h-110q-71 0 -121 14t-82 47.5t-46 88.5t-14 137v388q0 35 -3.5 64.5t-15 53t-31.5 38.5t-54 22z" />
<glyph unicode="|" horiz-adv-x="595" d="M212 -467v1951h171v-1951h-171z" />
<glyph unicode="}" horiz-adv-x="801" d="M184 -113h44q41 0 65 7.5t36 27.5t15.5 54t3.5 88v382q0 44 4 75t16 57t32 48.5t50 49.5q-30 25 -50 48t-32 49t-16 58t-4 74v405q0 51 -3 84t-15 53t-36 28.5t-66 8.5h-44v150h112q71 0 120 -14.5t80.5 -47.5t45.5 -87.5t14 -136.5v-410q0 -69 20.5 -116.5t84.5 -60.5 v-171q-33 -7 -53.5 -22t-32 -38.5t-15.5 -53t-4 -64.5v-388q0 -82 -14 -137t-45.5 -88.5t-81 -47.5t-121.5 -14h-110v150z" />
<glyph unicode="~" horiz-adv-x="1060" d="M76 1211q25 47 52.5 78.5t57 50.5t65.5 27.5t81 8.5q51 0 99 -14t94 -30.5t91 -30.5t90 -14q41 0 73.5 21.5t56.5 69.5l144 -115q-33 -83 -100 -125.5t-156 -42.5q-51 0 -99 14t-94 31t-91 31t-89 14q-45 0 -73.5 -19t-56.5 -73z" />
<glyph unicode="&#xa1;" horiz-adv-x="708" d="M212 1025q0 61 39.5 97t100.5 36q64 0 104 -36t40 -97t-40 -97.5t-104 -36.5q-61 0 -100.5 37t-39.5 97zM225 -279l35 999h190l34 -999h-259z" />
<glyph unicode="&#xa2;" horiz-adv-x="1098" d="M156 716q0 102 20.5 191t62.5 159.5t108.5 118.5t158.5 68v161h204v-157q68 -10 126.5 -35t118.5 -68l-94 -177q-28 24 -54 42.5t-53 30.5t-56 18.5t-63 6.5q-75 0 -122.5 -32.5t-73.5 -85t-36 -116t-10 -125.5q0 -71 13 -137t41 -118t75.5 -83t118.5 -31q64 0 123 25 t123 79l85 -165q-64 -51 -125 -79.5t-137 -39.5v-167h-204v170q-92 18 -158.5 68.5t-108.5 123t-62.5 163t-20.5 191.5z" />
<glyph unicode="&#xa3;" horiz-adv-x="1073" d="M141 0v190h23q81 0 114 55.5t33 157.5q0 24 -1.5 49t-4 55t-7.5 69t-14 90h-141v185h120q-10 65 -18.5 129.5t-8.5 132.5q0 165 97.5 244.5t271.5 79.5q86 0 169 -20.5t162 -62.5l-46 -198q-52 37 -113 60t-133 23q-98 0 -137.5 -44.5t-39.5 -130.5q0 -50 7 -102.5 t18 -110.5h269v-185h-246q18 -95 26 -157.5t8 -119.5q0 -59 -8.5 -101t-31.5 -83v-3h451v-202h-819z" />
<glyph unicode="&#xa4;" horiz-adv-x="1359" d="M127 477l40 140h112q-3 24 -3 46v47v42t3 43h-133l39 140h108q17 106 53.5 197t99.5 159t152 107t211 39q64 0 120.5 -12t108.5 -37t101.5 -62.5t99.5 -86.5l-143 -154q-68 81 -136.5 119.5t-154.5 38.5q-122 0 -187.5 -79t-87.5 -229h483l-40 -140h-457q-1 -21 -1 -43 v-42v-47t1 -46h444l-41 -140h-387q10 -62 28 -117.5t50 -97t79.5 -66.5t115.5 -25q92 0 167 39.5t151 121.5l123 -157q-88 -93 -195.5 -146t-247.5 -53q-119 0 -207 36t-149.5 102t-99 158.5t-54.5 204.5h-166z" />
<glyph unicode="&#xa5;" horiz-adv-x="1261" d="M99 1414h256l283 -656l281 656h244l-286 -602h216v-160h-294l-42 -90v-126h338v-160h-338v-276h-238v276h-342v160h342v117l-47 99h-295v160h215z" />
<glyph unicode="&#xa6;" horiz-adv-x="594" d="M212 361h170v-828h-170v828zM212 658v826h170v-826h-170z" />
<glyph unicode="&#xa7;" horiz-adv-x="1029" d="M141 610q0 110 64.5 173t177.5 73v7q-102 38 -162.5 104.5t-60.5 172.5q0 141 94.5 219t265.5 78q88 0 165 -17t162 -57l-56 -182q-62 37 -121 55.5t-123 18.5q-31 0 -58.5 -6t-48 -18.5t-32.5 -34t-12 -50.5q0 -37 26 -71t97 -71q52 -23 97 -42.5t107 -47.5 q76 -38 120.5 -98.5t44.5 -162.5q0 -50 -12 -94t-39.5 -78.5t-73 -57.5t-110.5 -30v-5q48 -18 90.5 -46t74 -65.5t49.5 -84t18 -101.5q0 -66 -19.5 -121.5t-62.5 -96t-112 -63t-166 -22.5q-106 0 -193 29t-176 88l70 171q76 -54 149 -83.5t145 -29.5q147 0 148 119 q0 25 -8 46t-25.5 39t-47.5 36.5t-72 42.5q-45 21 -88.5 41.5t-81.5 40.5q-48 27 -85.5 54.5t-63.5 61t-40.5 73t-14.5 93.5zM341 617q0 -28 9 -53t30.5 -43.5t55.5 -28.5t83 -10q173 1 173 135q0 66 -40 100.5t-133 34.5q-37 0 -69.5 -6t-56.5 -21t-38 -42t-14 -66z" />
<glyph unicode="&#xa8;" horiz-adv-x="770" d="M64 1447q0 27 9.5 49.5t26 39.5t40 27t48.5 10t48 -10t40 -27t27 -39.5t10 -49.5t-10 -49.5t-27 -39.5t-39.5 -27t-48.5 -10q-25 0 -48.5 10t-40 27t-26 39.5t-9.5 49.5zM485 1447q0 52 37 89t89 37t89 -37t37 -89t-37 -89t-89 -37t-89 37t-37 89z" />
<glyph unicode="&#xa9;" horiz-adv-x="1776" d="M156 709q0 151 58 284.5t157.5 233.5t232.5 157t284 57q153 0 286 -57t232.5 -157t157 -233.5t57.5 -284.5q0 -153 -57.5 -286.5t-157 -233.5t-232.5 -157t-286 -57q-151 0 -284 57t-232.5 157t-157.5 233.5t-58 286.5zM250 710q0 -133 50.5 -249t137.5 -203t203 -137 t247 -50q133 0 250.5 50t204.5 137t138 203t51 249t-51 249t-138 203t-204.5 137t-250.5 50q-132 0 -247.5 -50t-202.5 -137t-137.5 -203t-50.5 -249zM487 713q0 102 27.5 185.5t79.5 142.5t129.5 91t177.5 32q93 0 172.5 -31t148.5 -98l-96 -118q-100 102 -218 101 q-129 0 -188 -81t-59 -227q0 -150 61.5 -232t189.5 -82q66 0 122 25.5t113 76.5l81 -119q-75 -65 -151 -96t-169 -31q-109 0 -188 35t-131 97t-77 146t-25 183z" />
<glyph unicode="&#xaa;" horiz-adv-x="891" d="M141 977q0 65 29 110.5t82.5 73.5t127.5 41t166 13v14q0 25 -3 43.5t-13 30t-29.5 17t-53.5 5.5q-50 0 -110 -15.5t-132 -54.5l-48 114q78 41 148.5 60t149.5 19q69 0 116 -14t75.5 -43.5t40.5 -75.5t12 -111v-242q0 -17 2 -28.5t7.5 -20t15.5 -16t26 -17.5l-95 -98 q-37 10 -59 27.5t-33 44.5h-3q-50 -35 -105 -54t-110 -19q-92 0 -148 53.5t-56 142.5zM291 984q0 -45 25.5 -70.5t66.5 -25.5q37 0 76.5 14.5t86.5 49.5v164q-136 0 -195.5 -33.5t-59.5 -98.5z" />
<glyph unicode="&#xab;" horiz-adv-x="1108" d="M141 642l238 422l167 -87l-192 -338l192 -333l-167 -85zM564 642l239 422l164 -87l-191 -338l191 -333l-164 -85z" />
<glyph unicode="&#xad;" horiz-adv-x="875" d="M198 506v229h479v-229h-479z" />
<glyph unicode="&#xae;" horiz-adv-x="1019" d="M141 1123q0 75 29 141t78.5 114.5t117 77t143.5 28.5t143.5 -28.5t117.5 -77t79 -114.5t29 -141q0 -74 -29 -139t-79 -113.5t-117.5 -77t-143.5 -28.5t-143.5 28.5t-117 77t-78.5 113.5t-29 139zM197 1126q0 -64 24.5 -119t67 -96t100 -64.5t122.5 -23.5q64 0 120 23.5 t98 64.5t66.5 96t24.5 119q0 62 -24.5 117t-66.5 96t-98 65.5t-120 24.5q-65 0 -122.5 -24.5t-100 -65.5t-67 -96t-24.5 -117zM363 931v394q40 4 77.5 5t70.5 1q31 0 62 -5t54.5 -19t38 -39t14.5 -64q0 -34 -17 -61t-45 -43q6 -10 18 -37.5t24 -56.5t21 -52l9 -23h-104 l-57 134q-1 13 -14 13h-57v-147h-95zM457 1148h62q66 0 67 50q0 31 -16.5 44t-56.5 13h-32q-13 0 -24 -2v-105z" />
<glyph unicode="&#xaf;" horiz-adv-x="985" d="M185 1355v167h604v-167h-604z" />
<glyph unicode="&#xb0;" horiz-adv-x="939" d="M141 1126q0 68 25.5 128t70 105t105 71.5t128.5 26.5t127 -26.5t103.5 -71.5t71 -105t26.5 -128t-26.5 -127.5t-71 -104.5t-104 -71.5t-126.5 -26.5q-68 0 -128.5 26.5t-105 71.5t-70 104.5t-25.5 127.5zM233 1127q0 -48 19.5 -91t51 -75t74.5 -50.5t92 -18.5 q48 0 91 18.5t75 50.5t51 75t19 91t-19 91.5t-51 75t-75 50t-91 18.5t-91.5 -18.5t-75 -50t-51 -75t-19.5 -91.5z" />
<glyph unicode="&#xb1;" horiz-adv-x="1277" d="M137 0v194h979v-194h-979zM137 689v225h378v345h229v-345h372v-225h-372v-333h-229v333h-378z" />
<glyph unicode="&#xb2;" horiz-adv-x="765" d="M99 1453q68 61 138 90.5t149 29.5q119 0 190.5 -62.5t71.5 -183.5q0 -52 -18.5 -104.5t-59.5 -110.5t-106 -123t-157 -143h345v-146h-525l-24 143q57 58 121.5 119.5t119.5 121.5t91 118t36 108q0 45 -25.5 79t-86.5 34q-88 0 -177 -89z" />
<glyph unicode="&#xb3;" horiz-adv-x="776" d="M99 769l71 128q55 -41 99 -54.5t92 -13.5q55 0 93 29.5t38 96.5q0 62 -31.5 93t-101.5 31h-99v136h67q75 0 106.5 27.5t31.5 87.5q0 50 -26.5 76.5t-86.5 26.5q-41 0 -83.5 -14.5t-87.5 -49.5l-71 119q38 24 71 40t64.5 27t63.5 16t69 5q58 0 106 -15t82.5 -45t53.5 -73 t19 -99q0 -59 -24.5 -107.5t-71.5 -76.5q62 -23 91 -78.5t29 -131.5q0 -58 -20.5 -106t-58.5 -82.5t-93 -53.5t-125 -19q-79 0 -142.5 19.5t-124.5 60.5z" />
<glyph unicode="&#xb4;" horiz-adv-x="619" d="M71 1362l266 265l199 -104l-337 -235z" />
<glyph unicode="&#xb6;" horiz-adv-x="1162" d="M184 535q0 110 38 206t113 168.5t187 113.5t260 41h146v-1064h-146q-149 0 -260.5 41t-186.5 113t-113 169.5t-38 211.5z" />
<glyph unicode="&#xb7;" horiz-adv-x="613" d="M141 577q0 34 13 64.5t35.5 52.5t53 34.5t64.5 12.5t63.5 -12.5t52.5 -34.5t36 -52.5t13 -64.5t-13 -63.5t-36 -52.5t-52.5 -35.5t-63.5 -12.5t-64.5 12.5t-53 35.5t-35.5 52.5t-13 63.5z" />
<glyph unicode="&#xb8;" horiz-adv-x="858" d="M283 -430l38 95q27 -16 51 -24.5t52 -8.5q33 0 59 19t26 69q0 30 -17 53t-54 23q-17 0 -33.5 -4t-31.5 -13l-41 39l81 181h103l-52 -122l3 -1q11 3 24 4t24 1q58 0 92.5 -43t34.5 -124q0 -40 -13.5 -74.5t-38 -60t-60.5 -39.5t-82 -14q-50 0 -88 10t-77 34z" />
<glyph unicode="&#xb9;" horiz-adv-x="623" d="M71 1363l250 198h133v-861h-170v644l-140 -99z" />
<glyph unicode="&#xba;" horiz-adv-x="857" d="M141 1122q0 76 18 137t54 104.5t89.5 67t126.5 23.5q143 0 215 -90t72 -247q0 -154 -73 -243t-219 -89q-140 0 -211.5 91t-71.5 246zM298 1120q0 -107 30.5 -159t100.5 -52q72 0 101.5 53t29.5 160q0 42 -5.5 79.5t-20.5 65t-40.5 44t-66.5 16.5t-65.5 -16.5t-39 -44 t-19.5 -65t-5 -81.5z" />
<glyph unicode="&#xbb;" horiz-adv-x="1110" d="M141 306l194 336l-194 337l166 86l238 -421l-238 -422zM566 306l191 336l-191 337l165 86l238 -421l-238 -422z" />
<glyph unicode="&#xbc;" horiz-adv-x="1980" d="M141 1363l251 198h133v-861h-170v644l-139 -99zM321 -82l1047 1643h151l-1047 -1643h-151zM1158 236l326 545h196v-536h108v-150h-108v-177h-172v177h-313zM1311 238h212v374z" />
<glyph unicode="&#xbd;" horiz-adv-x="1980" d="M141 1363l251 198h133v-861h-170v644l-139 -99zM317 -85l1049 1645h152l-1047 -1645h-154zM1235 670q71 61 140.5 92t147.5 31q120 0 192.5 -63.5t72.5 -184.5q0 -52 -19 -104.5t-60 -110.5t-107 -123.5t-159 -142.5h346v-146h-522l-24 146q57 57 121.5 117.5t118 121 t89.5 118.5t36 109q0 45 -24 77t-85 32q-47 0 -90 -19.5t-89 -69.5z" />
<glyph unicode="&#xbe;" horiz-adv-x="1980" d="M140 769l71 128q57 -41 100 -54.5t91 -13.5q55 0 93 29.5t38 96.5q0 62 -31.5 93t-102.5 31h-98v136h67q75 0 107.5 27.5t32.5 87.5q0 50 -27.5 76.5t-88.5 26.5q-40 0 -81.5 -14.5t-87.5 -49.5l-72 119q38 24 71 40t64.5 27t63.5 16t69 5q58 0 106 -15t82.5 -45 t53.5 -73t19 -99q0 -59 -25.5 -107.5t-70.5 -76.5q62 -23 91 -78.5t29 -131.5q0 -58 -20.5 -106t-58.5 -82.5t-92.5 -53.5t-123.5 -19q-79 0 -143.5 19.5t-125.5 60.5zM395 -82l1046 1643h153l-1047 -1643h-152zM1232 236l327 545h196v-536h106v-150h-106v-177h-172v177 h-313zM1387 238h211v374z" />
<glyph unicode="&#xbf;" horiz-adv-x="1090" d="M170 83q0 72 12 126t37.5 96.5t65 75.5t93.5 66l89 54q25 16 39 27.5t20.5 26t8 35t1.5 54.5v111h218v-157q0 -50 -5 -83t-18 -57t-36 -43t-60 -40l-83 -50q-38 -20 -66.5 -39.5t-47.5 -45t-28.5 -58t-9.5 -79.5q0 -99 51 -153.5t149 -54.5q78 0 140.5 27.5t129.5 85.5 l93 -181q-50 -34 -96.5 -58t-93.5 -40t-97.5 -23t-106.5 -7q-96 0 -170.5 26.5t-125.5 76t-77 121t-26 160.5zM505 1025q0 59 39.5 96t101.5 37q64 0 105 -36t41 -97q0 -62 -41 -97.5t-105 -35.5q-62 0 -101.5 36.5t-39.5 96.5z" />
<glyph unicode="&#xc0;" horiz-adv-x="1342" d="M85 0l438 1419h287l447 -1419h-257l-99 328h-467l-96 -328h-253zM319 1778l200 104l267 -265l-130 -74zM479 532h375l-184 662h-8z" />
<glyph unicode="&#xc1;" horiz-adv-x="1342" d="M85 0l438 1419h287l447 -1419h-257l-99 328h-467l-96 -328h-253zM479 532h375l-184 662h-8zM548 1617l266 265l199 -104l-337 -235z" />
<glyph unicode="&#xc2;" horiz-adv-x="1342" d="M85 0l438 1419h287l447 -1419h-257l-99 328h-467l-96 -328h-253zM367 1650l301 196l303 -196l-94 -107l-209 124l-209 -125zM479 532h375l-184 662h-8z" />
<glyph unicode="&#xc3;" horiz-adv-x="1342" d="M85 0l438 1419h287l447 -1419h-257l-99 328h-467l-96 -328h-253zM320 1626q35 88 83.5 128t121.5 40q40 0 76.5 -14t70.5 -30t64.5 -30.5t60.5 -14.5q75 0 110 91l108 -79q-27 -75 -83 -119t-125 -44q-40 0 -77 13.5t-70 30.5t-64 30.5t-61 13.5q-35 0 -62 -21.5 t-44 -72.5zM479 532h375l-184 662h-8z" />
<glyph unicode="&#xc4;" horiz-adv-x="1342" d="M85 0l438 1419h287l447 -1419h-257l-99 328h-467l-96 -328h-253zM331 1680q0 27 9.5 49.5t26 39.5t40 27t48.5 10t48 -10t40 -27t27 -39.5t10 -49.5t-10 -49.5t-27 -39.5t-39.5 -27t-48.5 -10q-25 0 -48.5 10t-40 27t-26 39.5t-9.5 49.5zM479 532h375l-184 662h-8z M752 1680q0 52 37 89t89 37t89 -37t37 -89t-37 -89t-89 -37t-89 37t-37 89z" />
<glyph unicode="&#xc5;" horiz-adv-x="1342" d="M85 0l438 1419h287l447 -1419h-257l-99 328h-467l-96 -328h-253zM468 1708q0 40 15 74.5t40.5 60.5t60 41t74.5 15t74 -15t59.5 -41t40.5 -60.5t15 -74.5t-15 -74.5t-40.5 -60.5t-60 -41t-73.5 -15q-40 0 -74.5 15t-60 41t-40.5 61t-15 74zM479 532h375l-184 662h-8z M560 1708q0 -41 28.5 -70t69.5 -29t69 29t28 70t-28 69.5t-69 28.5t-69.5 -28.5t-28.5 -69.5z" />
<glyph unicode="&#xc6;" horiz-adv-x="1840" d="M85 0l587 1414h994v-203h-522v-372h471v-205h-471v-435h541v-199h-780v325h-448l-132 -325h-240zM533 529h372l2 682h-104z" />
<glyph unicode="&#xc7;" horiz-adv-x="1261" d="M156 710q0 141 32.5 273t102.5 233t179.5 161t264.5 60q130 0 232 -49.5t201 -148.5l-144 -165q-34 38 -66.5 68.5t-66.5 51t-72 31t-84 10.5q-83 0 -146 -36t-104 -104t-61.5 -165.5t-20.5 -219.5q0 -93 15 -188t53 -171.5t102.5 -124.5t164.5 -48q93 0 165.5 42.5 t147.5 123.5l126 -166q-81 -85 -178 -135.5t-217 -62.5l-44 -104l2 -3q11 3 24.5 4t24.5 1q58 0 92 -43t34 -124q0 -40 -13.5 -73.5t-39 -59t-61.5 -40.5t-81 -15q-47 0 -86 11t-80 35l39 94q52 -33 104 -32q33 0 59 19t26 67q0 31 -17 54.5t-54 23.5q-17 0 -33 -5t-30 -12 l-41 38l70 164q-140 8 -239 67.5t-161.5 157.5t-91.5 227.5t-29 277.5z" />
<glyph unicode="&#xc8;" horiz-adv-x="1118" d="M212 0v1414h760v-203h-521v-372h471v-205h-471v-435h540v-199h-779zM260 1778l200 104l267 -265l-130 -74z" />
<glyph unicode="&#xc9;" horiz-adv-x="1118" d="M212 0v1414h760v-203h-521v-372h471v-205h-471v-435h540v-199h-779zM464 1617l266 265l199 -104l-337 -235z" />
<glyph unicode="&#xca;" horiz-adv-x="1118" d="M212 0v1414h760v-203h-521v-372h471v-205h-471v-435h540v-199h-779zM316 1650l301 196l303 -196l-94 -107l-209 124l-209 -125z" />
<glyph unicode="&#xcb;" horiz-adv-x="1118" d="M212 0v1414h760v-203h-521v-372h471v-205h-471v-435h540v-199h-779zM254 1680q0 27 9.5 49.5t26 39.5t40 27t48.5 10t48 -10t40 -27t27 -39.5t10 -49.5t-10 -49.5t-27 -39.5t-39.5 -27t-48.5 -10q-25 0 -48.5 10t-40 27t-26 39.5t-9.5 49.5zM675 1680q0 52 37 89t89 37 t89 -37t37 -89t-37 -89t-89 -37t-89 37t-37 89z" />
<glyph unicode="&#xcc;" horiz-adv-x="666" d="M-20 1778l200 104l267 -265l-130 -74zM212 0v1414h242v-1414h-242z" />
<glyph unicode="&#xcd;" horiz-adv-x="666" d="M212 0v1414h242v-1414h-242zM214 1617l266 265l199 -104l-337 -235z" />
<glyph unicode="&#xce;" horiz-adv-x="666" d="M31 1650l301 196l303 -196l-94 -107l-209 124l-209 -125zM212 0v1414h242v-1414h-242z" />
<glyph unicode="&#xcf;" horiz-adv-x="666" d="M-1 1680q0 27 9.5 49.5t26 39.5t40 27t48.5 10t48 -10t40 -27t27 -39.5t10 -49.5t-10 -49.5t-27 -39.5t-39.5 -27t-48.5 -10q-25 0 -48.5 10t-40 27t-26 39.5t-9.5 49.5zM212 0v1414h242v-1414h-242zM420 1680q0 52 37 89t89 37t89 -37t37 -89t-37 -89t-89 -37t-89 37 t-37 89z" />
<glyph unicode="&#xd0;" horiz-adv-x="1377" d="M89 646v181h123v579q44 4 95.5 9t103 8t104 5t97.5 2q154 0 269 -49.5t190.5 -143t113 -226t37.5 -297.5q0 -161 -36 -293t-112.5 -225.5t-193 -144.5t-277.5 -51h-391v646h-123zM451 195q41 -1 72 -1h64q98 0 170.5 29.5t119.5 93t71 163.5t24 240q0 105 -15.5 199 t-54.5 165.5t-107 113t-173 41.5q-41 0 -85.5 -2t-85.5 -8v-402h219v-181h-219v-451z" />
<glyph unicode="&#xd1;" horiz-adv-x="1462" d="M212 0v1414h235l567 -973h6v973h230v-1414h-230l-573 965h-4l3 -965h-234zM385 1626q35 88 83.5 128t121.5 40q40 0 76.5 -14t70.5 -30t64.5 -30.5t60.5 -14.5q75 0 110 91l108 -79q-27 -75 -83 -119t-125 -44q-40 0 -77 13.5t-70 30.5t-64 30.5t-61 13.5 q-35 0 -62 -21.5t-44 -72.5z" />
<glyph unicode="&#xd2;" d="M156 709q0 161 36 295.5t108.5 230.5t183 149t260.5 53q149 0 260 -53t183.5 -149t109.5 -230.5t37 -295.5q0 -164 -37 -299.5t-110.5 -231.5t-184.5 -149t-258 -53q-149 0 -260 52.5t-183.5 148.5t-108.5 231t-36 301zM403 709q0 -117 16.5 -215.5t55 -169.5t105 -110.5 t167.5 -39.5q98 0 162.5 40.5t103.5 111.5t54.5 169.5t15.5 213.5q0 116 -15.5 213.5t-55 168t-105 110t-164.5 39.5t-164.5 -39.5t-104 -110t-55 -168t-16.5 -213.5zM407 1778l200 104l267 -265l-130 -74z" />
<glyph unicode="&#xd3;" d="M156 709q0 161 36 295.5t108.5 230.5t183 149t260.5 53q149 0 260 -53t183.5 -149t109.5 -230.5t37 -295.5q0 -164 -37 -299.5t-110.5 -231.5t-184.5 -149t-258 -53q-149 0 -260 52.5t-183.5 148.5t-108.5 231t-36 301zM403 709q0 -117 16.5 -215.5t55 -169.5t105 -110.5 t167.5 -39.5q98 0 162.5 40.5t103.5 111.5t54.5 169.5t15.5 213.5q0 116 -15.5 213.5t-55 168t-105 110t-164.5 39.5t-164.5 -39.5t-104 -110t-55 -168t-16.5 -213.5zM607 1617l266 265l199 -104l-337 -235z" />
<glyph unicode="&#xd4;" d="M156 709q0 161 36 295.5t108.5 230.5t183 149t260.5 53q149 0 260 -53t183.5 -149t109.5 -230.5t37 -295.5q0 -164 -37 -299.5t-110.5 -231.5t-184.5 -149t-258 -53q-149 0 -260 52.5t-183.5 148.5t-108.5 231t-36 301zM403 709q0 -117 16.5 -215.5t55 -169.5t105 -110.5 t167.5 -39.5q98 0 162.5 40.5t103.5 111.5t54.5 169.5t15.5 213.5q0 116 -15.5 213.5t-55 168t-105 110t-164.5 39.5t-164.5 -39.5t-104 -110t-55 -168t-16.5 -213.5zM440 1650l301 196l303 -196l-94 -107l-209 124l-209 -125z" />
<glyph unicode="&#xd5;" d="M156 709q0 161 36 295.5t108.5 230.5t183 149t260.5 53q149 0 260 -53t183.5 -149t109.5 -230.5t37 -295.5q0 -164 -37 -299.5t-110.5 -231.5t-184.5 -149t-258 -53q-149 0 -260 52.5t-183.5 148.5t-108.5 231t-36 301zM397 1626q35 88 83.5 128t121.5 40q40 0 76.5 -14 t70.5 -30t64.5 -30.5t60.5 -14.5q75 0 110 91l108 -79q-27 -75 -83 -119t-125 -44q-40 0 -77 13.5t-70 30.5t-64 30.5t-61 13.5q-35 0 -62 -21.5t-44 -72.5zM403 709q0 -117 16.5 -215.5t55 -169.5t105 -110.5t167.5 -39.5q98 0 162.5 40.5t103.5 111.5t54.5 169.5 t15.5 213.5q0 116 -15.5 213.5t-55 168t-105 110t-164.5 39.5t-164.5 -39.5t-104 -110t-55 -168t-16.5 -213.5z" />
<glyph unicode="&#xd6;" d="M156 709q0 161 36 295.5t108.5 230.5t183 149t260.5 53q149 0 260 -53t183.5 -149t109.5 -230.5t37 -295.5q0 -164 -37 -299.5t-110.5 -231.5t-184.5 -149t-258 -53q-149 0 -260 52.5t-183.5 148.5t-108.5 231t-36 301zM403 709q0 -117 16.5 -215.5t55 -169.5t105 -110.5 t167.5 -39.5q98 0 162.5 40.5t103.5 111.5t54.5 169.5t15.5 213.5q0 116 -15.5 213.5t-55 168t-105 110t-164.5 39.5t-164.5 -39.5t-104 -110t-55 -168t-16.5 -213.5zM416 1659q0 27 9.5 49.5t26 39.5t40 27t48.5 10t48 -10t40 -27t27 -39.5t10 -49.5t-10 -49.5t-27 -39.5 t-39.5 -27t-48.5 -10q-25 0 -48.5 10t-40 27t-26 39.5t-9.5 49.5zM837 1659q0 52 37 89t89 37t89 -37t37 -89t-37 -89t-89 -37t-89 37t-37 89z" />
<glyph unicode="&#xd7;" horiz-adv-x="1277" d="M233 308l259 254l-259 251l149 147l252 -256l251 256l147 -147l-256 -251l256 -254l-147 -147l-251 259l-252 -259z" />
<glyph unicode="&#xd8;" d="M78 113l155 176q-41 86 -59 190.5t-18 229.5q0 161 36 295.5t108.5 230.5t183 149t260.5 53q120 0 215 -35.5t164 -100.5l119 136l144 -127l-144 -164q45 -89 68.5 -199.5t23.5 -237.5q0 -164 -37 -299.5t-110.5 -231.5t-184.5 -149t-258 -53q-129 0 -228 39t-174 112 l-130 -151zM403 709q0 -58 3.5 -110.5t10.5 -100.5l563 641q-41 50 -99 75.5t-138 25.5q-99 0 -164.5 -39.5t-104 -110t-55 -168t-16.5 -213.5zM492 294q40 -58 103 -89t152 -31q98 0 162.5 40.5t103.5 111.5t54.5 169.5t15.5 213.5q0 65 -4.5 123.5t-13.5 110.5z" />
<glyph unicode="&#xd9;" horiz-adv-x="1401" d="M212 573v841h239v-857q0 -86 10 -156t37 -119t75.5 -75.5t128.5 -26.5q78 0 126.5 26.5t75.5 75.5t36 119t9 156v857h240v-841q0 -144 -24 -255.5t-80.5 -187t-150.5 -115t-232 -39.5q-140 0 -234.5 39t-151 114.5t-80.5 186.5t-24 257zM370 1768l200 104l267 -265 l-130 -74z" />
<glyph unicode="&#xda;" horiz-adv-x="1401" d="M212 573v841h239v-857q0 -86 10 -156t37 -119t75.5 -75.5t128.5 -26.5q78 0 126.5 26.5t75.5 75.5t36 119t9 156v857h240v-841q0 -144 -24 -255.5t-80.5 -187t-150.5 -115t-232 -39.5q-140 0 -234.5 39t-151 114.5t-80.5 186.5t-24 257zM573 1607l266 265l199 -104 l-337 -235z" />
<glyph unicode="&#xdb;" horiz-adv-x="1401" d="M212 573v841h239v-857q0 -86 10 -156t37 -119t75.5 -75.5t128.5 -26.5q78 0 126.5 26.5t75.5 75.5t36 119t9 156v857h240v-841q0 -144 -24 -255.5t-80.5 -187t-150.5 -115t-232 -39.5q-140 0 -234.5 39t-151 114.5t-80.5 186.5t-24 257zM406 1640l301 196l303 -196 l-94 -107l-209 124l-209 -125z" />
<glyph unicode="&#xdc;" horiz-adv-x="1401" d="M212 573v841h239v-857q0 -86 10 -156t37 -119t75.5 -75.5t128.5 -26.5q78 0 126.5 26.5t75.5 75.5t36 119t9 156v857h240v-841q0 -144 -24 -255.5t-80.5 -187t-150.5 -115t-232 -39.5q-140 0 -234.5 39t-151 114.5t-80.5 186.5t-24 257zM362 1680q0 27 9.5 49.5t26 39.5 t40 27t48.5 10t48 -10t40 -27t27 -39.5t10 -49.5t-10 -49.5t-27 -39.5t-39.5 -27t-48.5 -10q-25 0 -48.5 10t-40 27t-26 39.5t-9.5 49.5zM783 1680q0 52 37 89t89 37t89 -37t37 -89t-37 -89t-89 -37t-89 37t-37 89z" />
<glyph unicode="&#xdd;" horiz-adv-x="1220" d="M71 1414h261l280 -657l282 657h256l-419 -865v-549h-239v539zM492 1595l266 265l199 -104l-337 -235z" />
<glyph unicode="&#xde;" horiz-adv-x="1281" d="M212 0v1414h239v-254q82 4 174 4q112 0 204.5 -22.5t158.5 -75t102 -139.5t36 -214q0 -225 -107.5 -341.5t-345.5 -116.5h-222v-255h-239zM451 450h187q64 0 109.5 10.5t76 39.5t45.5 79t15 131q0 74 -12.5 123.5t-42.5 79.5t-77.5 43.5t-116.5 13.5q-42 0 -86.5 -2.5 t-97.5 -7.5v-510z" />
<glyph unicode="&#xdf;" horiz-adv-x="1281" d="M127 932v194h136v52q0 76 15.5 144t56.5 119t114 81t186 30q171 0 267.5 -78.5t96.5 -257.5q0 -54 -10 -97.5t-31.5 -84.5t-55.5 -81.5t-82 -85.5v-4q78 -41 139.5 -83.5t104.5 -96.5t66.5 -122.5t23.5 -161.5q0 -105 -29 -180t-82 -123.5t-128 -72t-168 -23.5h-103v182 q59 0 111.5 8t92.5 31.5t63.5 66t23.5 111.5q0 64 -19 112t-58.5 86.5t-100 71.5t-142.5 65l-24 143q57 58 94.5 99.5t59.5 77t31 69.5t9 79q0 40 -7 71.5t-24 54.5t-46 35.5t-73 12.5q-79 0 -109 -47.5t-30 -144.5v-1184h-233v933z" />
<glyph unicode="&#xe0;" horiz-adv-x="1254" d="M156 322q0 129 59 212t152.5 130t208 65t223.5 18v42q0 48 -5.5 87t-22.5 66t-49 41t-84 14q-103 0 -196.5 -29.5t-178.5 -79.5l-61 176q107 57 215.5 85.5t233.5 28.5q109 0 182.5 -25.5t117 -75.5t62 -125t18.5 -174v-514q0 -34 2 -55.5t9 -38t20.5 -29t36.5 -26.5 l-146 -129q-54 16 -87.5 44.5t-46.5 88.5h-6q-68 -68 -153.5 -106t-187.5 -38q-76 0 -135.5 25t-99.5 72t-60.5 110.5t-20.5 139.5zM284 1523l200 104l267 -265l-130 -74zM385 335q0 -42 9 -77.5t28 -61.5t49 -41t71 -15q68 0 133 30.5t123 88.5v336q-76 0 -150.5 -10.5 t-132.5 -39.5t-94 -80t-36 -130z" />
<glyph unicode="&#xe1;" horiz-adv-x="1254" d="M156 322q0 129 59 212t152.5 130t208 65t223.5 18v42q0 48 -5.5 87t-22.5 66t-49 41t-84 14q-103 0 -196.5 -29.5t-178.5 -79.5l-61 176q107 57 215.5 85.5t233.5 28.5q109 0 182.5 -25.5t117 -75.5t62 -125t18.5 -174v-514q0 -34 2 -55.5t9 -38t20.5 -29t36.5 -26.5 l-146 -129q-54 16 -87.5 44.5t-46.5 88.5h-6q-68 -68 -153.5 -106t-187.5 -38q-76 0 -135.5 25t-99.5 72t-60.5 110.5t-20.5 139.5zM385 335q0 -42 9 -77.5t28 -61.5t49 -41t71 -15q68 0 133 30.5t123 88.5v336q-76 0 -150.5 -10.5t-132.5 -39.5t-94 -80t-36 -130zM473 1362 l266 265l199 -104l-337 -235z" />
<glyph unicode="&#xe2;" horiz-adv-x="1254" d="M156 322q0 129 59 212t152.5 130t208 65t223.5 18v42q0 48 -5.5 87t-22.5 66t-49 41t-84 14q-103 0 -196.5 -29.5t-178.5 -79.5l-61 176q107 57 215.5 85.5t233.5 28.5q109 0 182.5 -25.5t117 -75.5t62 -125t18.5 -174v-514q0 -34 2 -55.5t9 -38t20.5 -29t36.5 -26.5 l-146 -129q-54 16 -87.5 44.5t-46.5 88.5h-6q-68 -68 -153.5 -106t-187.5 -38q-76 0 -135.5 25t-99.5 72t-60.5 110.5t-20.5 139.5zM310 1395l301 196l303 -196l-94 -107l-209 124l-209 -125zM385 335q0 -42 9 -77.5t28 -61.5t49 -41t71 -15q68 0 133 30.5t123 88.5v336 q-76 0 -150.5 -10.5t-132.5 -39.5t-94 -80t-36 -130z" />
<glyph unicode="&#xe3;" horiz-adv-x="1254" d="M156 322q0 129 59 212t152.5 130t208 65t223.5 18v42q0 48 -5.5 87t-22.5 66t-49 41t-84 14q-103 0 -196.5 -29.5t-178.5 -79.5l-61 176q107 57 215.5 85.5t233.5 28.5q109 0 182.5 -25.5t117 -75.5t62 -125t18.5 -174v-514q0 -34 2 -55.5t9 -38t20.5 -29t36.5 -26.5 l-146 -129q-54 16 -87.5 44.5t-46.5 88.5h-6q-68 -68 -153.5 -106t-187.5 -38q-76 0 -135.5 25t-99.5 72t-60.5 110.5t-20.5 139.5zM287 1393q35 88 83.5 128t121.5 40q40 0 76.5 -14t70.5 -30t64.5 -30.5t60.5 -14.5q75 0 110 91l108 -79q-27 -75 -83 -119t-125 -44 q-40 0 -77 13.5t-70 30.5t-64 30.5t-61 13.5q-35 0 -62 -21.5t-44 -72.5zM385 335q0 -42 9 -77.5t28 -61.5t49 -41t71 -15q68 0 133 30.5t123 88.5v336q-76 0 -150.5 -10.5t-132.5 -39.5t-94 -80t-36 -130z" />
<glyph unicode="&#xe4;" horiz-adv-x="1254" d="M156 322q0 129 59 212t152.5 130t208 65t223.5 18v42q0 48 -5.5 87t-22.5 66t-49 41t-84 14q-103 0 -196.5 -29.5t-178.5 -79.5l-61 176q107 57 215.5 85.5t233.5 28.5q109 0 182.5 -25.5t117 -75.5t62 -125t18.5 -174v-514q0 -34 2 -55.5t9 -38t20.5 -29t36.5 -26.5 l-146 -129q-54 16 -87.5 44.5t-46.5 88.5h-6q-68 -68 -153.5 -106t-187.5 -38q-76 0 -135.5 25t-99.5 72t-60.5 110.5t-20.5 139.5zM283 1447q0 27 9.5 49.5t26 39.5t40 27t48.5 10t48 -10t40 -27t27 -39.5t10 -49.5t-10 -49.5t-27 -39.5t-39.5 -27t-48.5 -10 q-25 0 -48.5 10t-40 27t-26 39.5t-9.5 49.5zM385 335q0 -42 9 -77.5t28 -61.5t49 -41t71 -15q68 0 133 30.5t123 88.5v336q-76 0 -150.5 -10.5t-132.5 -39.5t-94 -80t-36 -130zM704 1447q0 52 37 89t89 37t89 -37t37 -89t-37 -89t-89 -37t-89 37t-37 89z" />
<glyph unicode="&#xe5;" horiz-adv-x="1254" d="M156 322q0 129 59 212t152.5 130t208 65t223.5 18v42q0 48 -5.5 87t-22.5 66t-49 41t-84 14q-103 0 -196.5 -29.5t-178.5 -79.5l-61 176q107 57 215.5 85.5t233.5 28.5q109 0 182.5 -25.5t117 -75.5t62 -125t18.5 -174v-514q0 -34 2 -55.5t9 -38t20.5 -29t36.5 -26.5 l-146 -129q-54 16 -87.5 44.5t-46.5 88.5h-6q-68 -68 -153.5 -106t-187.5 -38q-76 0 -135.5 25t-99.5 72t-60.5 110.5t-20.5 139.5zM385 335q0 -42 9 -77.5t28 -61.5t49 -41t71 -15q68 0 133 30.5t123 88.5v336q-76 0 -150.5 -10.5t-132.5 -39.5t-94 -80t-36 -130zM450 1475 q0 40 15 74.5t40.5 60.5t60 41t74.5 15t74 -15t59.5 -41t40.5 -60.5t15 -74.5t-15 -74.5t-40.5 -60.5t-60 -41t-73.5 -15q-40 0 -74.5 15t-60 41t-40.5 61t-15 74zM542 1475q0 -41 28.5 -70t69.5 -29t69 29t28 70t-28 69.5t-69 28.5t-69.5 -28.5t-28.5 -69.5z" />
<glyph unicode="&#xe6;" horiz-adv-x="1905" d="M156 322q0 116 50 198.5t137 133t205 74t254 23.5v35q0 48 -4.5 85.5t-20.5 64t-49.5 40.5t-89.5 14q-85 0 -178.5 -27t-199.5 -83l-62 184q113 58 222.5 86t231.5 28q103 0 185 -28t130 -103q61 68 144.5 101.5t182.5 33.5q105 0 189 -35t143.5 -108.5t91.5 -187.5 t32 -270q0 -14 -1 -36.5t-4 -46.5h-704q7 -332 280 -333q150 0 289 101l72 -177q-173 -115 -374 -114q-136 0 -232.5 48.5t-158.5 141.5q-78 -98 -185.5 -144t-232.5 -46q-83 0 -146.5 24.5t-107.5 70.5t-66.5 109.5t-22.5 142.5zM383 335q0 -89 42 -142t114 -53 q71 0 131.5 28.5t128.5 91.5v335q-416 0 -416 -260zM1040 668h489q-3 68 -14.5 128.5t-38 106t-72 71.5t-113.5 26q-115 0 -182 -81.5t-69 -250.5z" />
<glyph unicode="&#xe7;" horiz-adv-x="1108" d="M156 577q0 120 28 229t89 192t156.5 131.5t229.5 48.5q95 0 182 -30.5t165 -89.5l-94 -177q-55 55 -111.5 82t-135.5 27q-83 0 -135.5 -39t-82.5 -98.5t-40.5 -131.5t-10.5 -140q0 -71 11.5 -145t41.5 -135.5t82.5 -100.5t134.5 -39q81 0 144.5 28.5t125.5 76.5l74 -171 q-78 -54 -159.5 -83.5t-175.5 -35.5l-43 -99l3 -1q11 3 24.5 4t25.5 1q57 0 92 -43t35 -124q0 -40 -13.5 -74.5t-39 -60t-61.5 -39.5t-81 -14q-50 0 -88 10t-78 34l38 95q54 -33 104 -33q33 0 58.5 19t25.5 69q0 30 -16 53t-53 23t-66 -17l-41 39l73 162q-113 13 -193 66 t-130 133.5t-72.5 183t-22.5 214.5z" />
<glyph unicode="&#xe8;" horiz-adv-x="1250" d="M156 577q0 151 36 263.5t101.5 187.5t155.5 112.5t199 37.5q219 0 333 -147t114 -444v-42q0 -27 -3 -51h-696q0 -332 274 -333q78 0 146.5 22.5t146.5 76.5l72 -175q-93 -59 -183 -84.5t-193 -25.5q-123 0 -217 41.5t-157.5 119.5t-96 189.5t-32.5 251.5zM309 1523 l200 104l267 -265l-130 -74zM395 662h482q-1 69 -11 130.5t-35.5 107.5t-69 73t-110.5 27q-119 0 -187.5 -85.5t-68.5 -252.5z" />
<glyph unicode="&#xe9;" horiz-adv-x="1250" d="M156 577q0 151 36 263.5t101.5 187.5t155.5 112.5t199 37.5q219 0 333 -147t114 -444v-42q0 -27 -3 -51h-696q0 -332 274 -333q78 0 146.5 22.5t146.5 76.5l72 -175q-93 -59 -183 -84.5t-193 -25.5q-123 0 -217 41.5t-157.5 119.5t-96 189.5t-32.5 251.5zM395 662h482 q-1 69 -11 130.5t-35.5 107.5t-69 73t-110.5 27q-119 0 -187.5 -85.5t-68.5 -252.5zM525 1362l266 265l199 -104l-337 -235z" />
<glyph unicode="&#xea;" horiz-adv-x="1250" d="M156 577q0 151 36 263.5t101.5 187.5t155.5 112.5t199 37.5q219 0 333 -147t114 -444v-42q0 -27 -3 -51h-696q0 -332 274 -333q78 0 146.5 22.5t146.5 76.5l72 -175q-93 -59 -183 -84.5t-193 -25.5q-123 0 -217 41.5t-157.5 119.5t-96 189.5t-32.5 251.5zM357 1395 l301 196l303 -196l-94 -107l-209 124l-209 -125zM395 662h482q-1 69 -11 130.5t-35.5 107.5t-69 73t-110.5 27q-119 0 -187.5 -85.5t-68.5 -252.5z" />
<glyph unicode="&#xeb;" horiz-adv-x="1250" d="M156 577q0 151 36 263.5t101.5 187.5t155.5 112.5t199 37.5q219 0 333 -147t114 -444v-42q0 -27 -3 -51h-696q0 -332 274 -333q78 0 146.5 22.5t146.5 76.5l72 -175q-93 -59 -183 -84.5t-193 -25.5q-123 0 -217 41.5t-157.5 119.5t-96 189.5t-32.5 251.5zM310 1447 q0 27 9.5 49.5t26 39.5t40 27t48.5 10t48 -10t40 -27t27 -39.5t10 -49.5t-10 -49.5t-27 -39.5t-39.5 -27t-48.5 -10q-25 0 -48.5 10t-40 27t-26 39.5t-9.5 49.5zM395 662h482q-1 69 -11 130.5t-35.5 107.5t-69 73t-110.5 27q-119 0 -187.5 -85.5t-68.5 -252.5zM731 1447 q0 52 37 89t89 37t89 -37t37 -89t-37 -89t-89 -37t-89 37t-37 89z" />
<glyph unicode="&#xec;" horiz-adv-x="663" d="M-15 1523l200 104l267 -265l-130 -74zM208 0v1156h234v-1156h-234z" />
<glyph unicode="&#xed;" horiz-adv-x="663" d="M208 0v1156h234v-1156h-234zM214 1362l266 265l199 -104l-337 -235z" />
<glyph unicode="&#xee;" horiz-adv-x="663" d="M30 1395l301 196l303 -196l-94 -107l-209 124l-209 -125zM208 0v1156h234v-1156h-234z" />
<glyph unicode="&#xef;" horiz-adv-x="663" d="M-7 1447q0 27 9.5 49.5t26 39.5t40 27t48.5 10t48 -10t40 -27t27 -39.5t10 -49.5t-10 -49.5t-27 -39.5t-39.5 -27t-48.5 -10q-25 0 -48.5 10t-40 27t-26 39.5t-9.5 49.5zM208 0v1156h234v-1156h-234zM414 1447q0 52 37 89t89 37t89 -37t37 -89t-37 -89t-89 -37t-89 37 t-37 89z" />
<glyph unicode="&#xf0;" horiz-adv-x="1298" d="M156 577q0 133 29.5 242.5t87 188t140.5 122t192 43.5q100 0 156.5 -33t85.5 -86l9 1q-13 47 -31.5 99t-39.5 108l-96 -43l-67 144l101 46q-17 42 -28.5 67.5t-24.5 52.5l170 73q17 -35 27.5 -57.5t27.5 -59.5l174 78l68 -149l-174 -76q38 -85 70.5 -174t57 -184 t38.5 -195t14 -208q0 -136 -30.5 -247t-91.5 -190t-153.5 -122t-216.5 -43q-126 0 -219 43t-154.5 121.5t-91.5 190t-30 247.5zM396 577q0 -93 11.5 -169.5t40.5 -131.5t77.5 -85t125.5 -30q75 0 124.5 30t78.5 85t40 131.5t11 169.5q0 81 -10 156t-37.5 131.5t-77 90.5 t-129.5 34q-81 0 -130.5 -34t-77 -90.5t-37.5 -131t-10 -156.5z" />
<glyph unicode="&#xf1;" horiz-adv-x="1304" d="M212 0v1156h205l20 -124h3q50 81 127 113.5t171 32.5q106 0 174 -32.5t108.5 -94t56 -152t15.5 -206.5v-693h-233v659q0 69 -3 128t-20.5 102t-56 67t-107.5 24q-123 0 -174.5 -71.5t-51.5 -202.5v-706h-234zM315 1393q35 88 83.5 128t121.5 40q40 0 76.5 -14t70.5 -30 t64.5 -30.5t60.5 -14.5q75 0 110 91l108 -79q-27 -75 -83 -119t-125 -44q-40 0 -77 13.5t-70 30.5t-64 30.5t-61 13.5q-35 0 -62 -21.5t-44 -72.5z" />
<glyph unicode="&#xf2;" horiz-adv-x="1298" d="M156 577q0 133 29.5 243.5t90.5 190t154 123.5t221 44q124 0 216 -42.5t153.5 -121t92 -189.5t30.5 -248q0 -136 -30.5 -247t-91.5 -190t-153.5 -122t-216.5 -43q-126 0 -219 43t-154.5 121.5t-91.5 190t-30 247.5zM309 1523l200 104l267 -265l-130 -74zM396 577 q0 -93 11.5 -169.5t40.5 -131.5t77.5 -85t125.5 -30q75 0 124.5 30t78.5 85t40 131.5t11 169.5q0 81 -10 156t-37.5 131.5t-77 90.5t-129.5 34q-81 0 -130.5 -34t-77 -90.5t-37.5 -131t-10 -156.5z" />
<glyph unicode="&#xf3;" horiz-adv-x="1298" d="M156 577q0 133 29.5 243.5t90.5 190t154 123.5t221 44q124 0 216 -42.5t153.5 -121t92 -189.5t30.5 -248q0 -136 -30.5 -247t-91.5 -190t-153.5 -122t-216.5 -43q-126 0 -219 43t-154.5 121.5t-91.5 190t-30 247.5zM396 577q0 -93 11.5 -169.5t40.5 -131.5t77.5 -85 t125.5 -30q75 0 124.5 30t78.5 85t40 131.5t11 169.5q0 81 -10 156t-37.5 131.5t-77 90.5t-129.5 34q-81 0 -130.5 -34t-77 -90.5t-37.5 -131t-10 -156.5zM535 1362l266 265l199 -104l-337 -235z" />
<glyph unicode="&#xf4;" horiz-adv-x="1298" d="M156 577q0 133 29.5 243.5t90.5 190t154 123.5t221 44q124 0 216 -42.5t153.5 -121t92 -189.5t30.5 -248q0 -136 -30.5 -247t-91.5 -190t-153.5 -122t-216.5 -43q-126 0 -219 43t-154.5 121.5t-91.5 190t-30 247.5zM354 1395l301 196l303 -196l-94 -107l-209 124 l-209 -125zM396 577q0 -93 11.5 -169.5t40.5 -131.5t77.5 -85t125.5 -30q75 0 124.5 30t78.5 85t40 131.5t11 169.5q0 81 -10 156t-37.5 131.5t-77 90.5t-129.5 34q-81 0 -130.5 -34t-77 -90.5t-37.5 -131t-10 -156.5z" />
<glyph unicode="&#xf5;" horiz-adv-x="1298" d="M156 577q0 133 29.5 243.5t90.5 190t154 123.5t221 44q124 0 216 -42.5t153.5 -121t92 -189.5t30.5 -248q0 -136 -30.5 -247t-91.5 -190t-153.5 -122t-216.5 -43q-126 0 -219 43t-154.5 121.5t-91.5 190t-30 247.5zM344 1393q35 88 83.5 128t121.5 40q40 0 76.5 -14 t70.5 -30t64.5 -30.5t60.5 -14.5q75 0 110 91l108 -79q-27 -75 -83 -119t-125 -44q-40 0 -77 13.5t-70 30.5t-64 30.5t-61 13.5q-35 0 -62 -21.5t-44 -72.5zM396 577q0 -93 11.5 -169.5t40.5 -131.5t77.5 -85t125.5 -30q75 0 124.5 30t78.5 85t40 131.5t11 169.5 q0 81 -10 156t-37.5 131.5t-77 90.5t-129.5 34q-81 0 -130.5 -34t-77 -90.5t-37.5 -131t-10 -156.5z" />
<glyph unicode="&#xf6;" horiz-adv-x="1298" d="M156 577q0 133 29.5 243.5t90.5 190t154 123.5t221 44q124 0 216 -42.5t153.5 -121t92 -189.5t30.5 -248q0 -136 -30.5 -247t-91.5 -190t-153.5 -122t-216.5 -43q-126 0 -219 43t-154.5 121.5t-91.5 190t-30 247.5zM316 1447q0 27 9.5 49.5t26 39.5t40 27t48.5 10t48 -10 t40 -27t27 -39.5t10 -49.5t-10 -49.5t-27 -39.5t-39.5 -27t-48.5 -10q-25 0 -48.5 10t-40 27t-26 39.5t-9.5 49.5zM396 577q0 -93 11.5 -169.5t40.5 -131.5t77.5 -85t125.5 -30q75 0 124.5 30t78.5 85t40 131.5t11 169.5q0 81 -10 156t-37.5 131.5t-77 90.5t-129.5 34 q-81 0 -130.5 -34t-77 -90.5t-37.5 -131t-10 -156.5zM737 1447q0 52 37 89t89 37t89 -37t37 -89t-37 -89t-89 -37t-89 37t-37 89z" />
<glyph unicode="&#xf8;" horiz-adv-x="1298" d="M124 48l112 154q-42 76 -61 170.5t-19 204.5q0 133 29.5 243.5t90.5 190t154 123.5t221 44q82 0 154 -19.5t130 -65.5l100 129l119 -92l-112 -146q52 -78 76.5 -183t24.5 -224q0 -136 -30.5 -247t-91.5 -190t-153.5 -122t-216.5 -43q-191 0 -313 104l-103 -130zM395 577 q0 -45 2.5 -92t12.5 -86l399 532q-30 30 -71.5 44t-86.5 14q-81 0 -131 -34t-78 -90.5t-37.5 -131t-9.5 -156.5zM465 246q37 -45 81.5 -65t104.5 -20q75 0 123.5 30.5t77.5 85.5t41 131.5t12 168.5q0 54 -4 113.5t-23 102.5z" />
<glyph unicode="&#xf9;" horiz-adv-x="1292" d="M212 417v739h234v-669q0 -71 4.5 -129t23 -100t55.5 -65t100 -23q120 0 168.5 71.5t48.5 213.5v701h235v-1156h-214l-14 122h-6q-50 -72 -120.5 -109.5t-177.5 -37.5q-86 0 -149 23t-105 75.5t-62.5 136.5t-20.5 207zM340 1523l200 104l267 -265l-130 -74z" />
<glyph unicode="&#xfa;" horiz-adv-x="1292" d="M212 417v739h234v-669q0 -71 4.5 -129t23 -100t55.5 -65t100 -23q120 0 168.5 71.5t48.5 213.5v701h235v-1156h-214l-14 122h-6q-50 -72 -120.5 -109.5t-177.5 -37.5q-86 0 -149 23t-105 75.5t-62.5 136.5t-20.5 207zM508 1362l266 265l199 -104l-337 -235z" />
<glyph unicode="&#xfb;" horiz-adv-x="1292" d="M212 417v739h234v-669q0 -71 4.5 -129t23 -100t55.5 -65t100 -23q120 0 168.5 71.5t48.5 213.5v701h235v-1156h-214l-14 122h-6q-50 -72 -120.5 -109.5t-177.5 -37.5q-86 0 -149 23t-105 75.5t-62.5 136.5t-20.5 207zM367 1395l301 196l303 -196l-94 -107l-209 124 l-209 -125z" />
<glyph unicode="&#xfc;" horiz-adv-x="1292" d="M212 417v739h234v-669q0 -71 4.5 -129t23 -100t55.5 -65t100 -23q120 0 168.5 71.5t48.5 213.5v701h235v-1156h-214l-14 122h-6q-50 -72 -120.5 -109.5t-177.5 -37.5q-86 0 -149 23t-105 75.5t-62.5 136.5t-20.5 207zM317 1447q0 27 9.5 49.5t26 39.5t40 27t48.5 10 t48 -10t40 -27t27 -39.5t10 -49.5t-10 -49.5t-27 -39.5t-39.5 -27t-48.5 -10q-25 0 -48.5 10t-40 27t-26 39.5t-9.5 49.5zM738 1447q0 52 37 89t89 37t89 -37t37 -89t-37 -89t-89 -37t-89 37t-37 89z" />
<glyph unicode="&#xfd;" horiz-adv-x="1139" d="M118 1156h247l242 -910h4l234 910h243l-379 -1224q-33 -99 -65.5 -171t-74 -119.5t-97.5 -70t-136 -22.5q-33 0 -66 2t-74 8v196q17 -3 43 -4t54 -1q37 0 63 6t45.5 23t33.5 47.5t28 80.5l25 85zM473 1362l266 265l199 -104l-337 -235z" />
<glyph unicode="&#xfe;" horiz-adv-x="1288" d="M212 -436v1969h224v-501h1q50 78 119 112t160 34q123 0 203.5 -55t128 -142t66.5 -192.5t19 -207.5q0 -68 -8.5 -139t-28.5 -139t-51.5 -127.5t-78.5 -104t-110 -70.5t-145 -26q-88 0 -151.5 31t-109.5 104h-4v-546h-234zM443 450q0 -55 10.5 -108t36 -94.5t68 -66.5 t105.5 -25q78 0 124.5 43.5t70 108t30.5 137.5t7 132q0 64 -5 137.5t-27.5 135.5t-70 103t-130.5 41q-58 0 -100 -19.5t-68.5 -55t-38.5 -82t-12 -99.5v-288z" />
<glyph unicode="&#xff;" horiz-adv-x="1139" d="M118 1156h247l242 -910h4l234 910h243l-379 -1224q-33 -99 -65.5 -171t-74 -119.5t-97.5 -70t-136 -22.5q-33 0 -66 2t-74 8v196q17 -3 43 -4t54 -1q37 0 63 6t45.5 23t33.5 47.5t28 80.5l25 85zM273 1447q0 27 9.5 49.5t26 39.5t40 27t48.5 10t48 -10t40 -27t27 -39.5 t10 -49.5t-10 -49.5t-27 -39.5t-39.5 -27t-48.5 -10q-25 0 -48.5 10t-40 27t-26 39.5t-9.5 49.5zM694 1447q0 52 37 89t89 37t89 -37t37 -89t-37 -89t-89 -37t-89 37t-37 89z" />
<glyph unicode="&#x152;" horiz-adv-x="2011" d="M156 709q0 161 36.5 295.5t111 230.5t185.5 149t261 53q115 0 208 -46.5t147 -131.5v155h759v-203h-522v-372h471v-201h-471v-439h542v-199h-779v161q-23 -42 -60.5 -76t-84 -57.5t-100.5 -35.5t-110 -12q-149 0 -260.5 51.5t-186 147t-111 230t-36.5 300.5zM400 709 q0 -117 18 -215t59 -168t108 -109t166 -39q98 0 163.5 39.5t106 111t58 168.5t17.5 212q0 116 -17 212.5t-56.5 166.5t-106 109t-165.5 39q-100 0 -167.5 -39.5t-107.5 -109.5t-58 -167t-18 -211z" />
<glyph unicode="&#x153;" horiz-adv-x="1948" d="M156 554q0 133 29.5 240.5t89.5 182.5t150 116t210 41t210 -44.5t148 -133.5q59 93 152.5 136.5t206.5 43.5q102 0 183.5 -35t138.5 -106t88 -180t31 -258v-37t-1 -46h-679q4 -311 265 -311q75 0 140 25.5t138 71.5l72 -175q-89 -57 -175 -83.5t-185 -26.5 q-253 0 -374 185q-116 -185 -359 -185q-117 0 -207 39.5t-151 114.5t-91 182.5t-30 242.5zM393 554q0 -197 56 -293t186 -96q127 0 183 97t56 292q0 79 -10 149.5t-36 123.5t-72.5 84t-120.5 31q-75 0 -122.5 -31t-74 -84t-36 -123t-9.5 -150zM1113 644h463q-1 64 -12 120 t-36.5 98.5t-67 68t-105.5 25.5q-113 0 -177.5 -77.5t-64.5 -234.5z" />
<glyph unicode="&#x178;" horiz-adv-x="1220" d="M71 1414h261l280 -657l282 657h256l-419 -865v-549h-239v539zM276 1680q0 27 9.5 49.5t26 39.5t40 27t48.5 10t48 -10t40 -27t27 -39.5t10 -49.5t-10 -49.5t-27 -39.5t-39.5 -27t-48.5 -10q-25 0 -48.5 10t-40 27t-26 39.5t-9.5 49.5zM697 1680q0 52 37 89t89 37t89 -37 t37 -89t-37 -89t-89 -37t-89 37t-37 89z" />
<glyph unicode="&#x2c6;" horiz-adv-x="738" d="M64 1395l301 196l303 -196l-94 -107l-209 124l-209 -125z" />
<glyph unicode="&#x2dc;" horiz-adv-x="775" d="M48 1393q35 88 83.5 128t121.5 40q40 0 76.5 -14t70.5 -30t64.5 -30.5t60.5 -14.5q75 0 110 91l108 -79q-27 -75 -83 -119t-125 -44q-40 0 -77 13.5t-70 30.5t-64 30.5t-61 13.5q-35 0 -62 -21.5t-44 -72.5z" />
<glyph unicode="&#x2000;" horiz-adv-x="949" />
<glyph unicode="&#x2001;" horiz-adv-x="1899" />
<glyph unicode="&#x2002;" horiz-adv-x="949" />
<glyph unicode="&#x2003;" horiz-adv-x="1899" />
<glyph unicode="&#x2004;" horiz-adv-x="633" />
<glyph unicode="&#x2005;" horiz-adv-x="474" />
<glyph unicode="&#x2006;" horiz-adv-x="316" />
<glyph unicode="&#x2007;" horiz-adv-x="316" />
<glyph unicode="&#x2008;" horiz-adv-x="237" />
<glyph unicode="&#x2009;" horiz-adv-x="379" />
<glyph unicode="&#x200a;" horiz-adv-x="105" />
<glyph unicode="&#x2010;" horiz-adv-x="875" d="M198 506v229h479v-229h-479z" />
<glyph unicode="&#x2011;" horiz-adv-x="875" d="M198 506v229h479v-229h-479z" />
<glyph unicode="&#x2012;" horiz-adv-x="875" d="M198 506v229h479v-229h-479z" />
<glyph unicode="&#x2013;" horiz-adv-x="1202" d="M170 628v192h862v-192h-862z" />
<glyph unicode="&#x2014;" horiz-adv-x="2009" d="M141 516v194h1727v-194h-1727z" />
<glyph unicode="&#x2018;" horiz-adv-x="581" d="M85 1028l174 456h153l-68 -456h-259z" />
<glyph unicode="&#x2019;" horiz-adv-x="577" d="M170 1028l66 456h256l-172 -456h-150z" />
<glyph unicode="&#x201a;" horiz-adv-x="577" d="M85 -314l66 455h256l-172 -455h-150z" />
<glyph unicode="&#x201c;" horiz-adv-x="990" d="M85 1028l172 456h152l-67 -456h-257zM494 1028l175 456h151l-68 -456h-258z" />
<glyph unicode="&#x201d;" horiz-adv-x="990" d="M170 1028l68 456h257l-173 -456h-152zM580 1028l69 456h256l-174 -456h-151z" />
<glyph unicode="&#x201e;" horiz-adv-x="990" d="M85 -314l68 455h257l-172 -455h-153zM495 -314l69 455h256l-174 -455h-151z" />
<glyph unicode="&#x2022;" horiz-adv-x="1240" d="M283 697q0 71 26 132.5t71.5 107.5t107 72t131.5 26q69 0 131.5 -26t108 -72t72.5 -107.5t27 -132.5t-27 -132t-72.5 -106.5t-107.5 -71.5t-132 -26q-71 0 -132 26t-106.5 71.5t-71.5 107t-26 131.5z" />
<glyph unicode="&#x2026;" horiz-adv-x="1571" d="M141 110q0 61 39 96.5t100 35.5q61 3 99 -33.5t38 -95.5q3 -61 -36.5 -97.5t-100.5 -39.5q-61 0 -100 37t-39 97zM645 110q0 61 39.5 96.5t100.5 35.5q61 1 100.5 -35t39.5 -94q0 -61 -39.5 -97.5t-99.5 -39.5q-61 0 -101 37t-40 97zM1151 110q0 61 39.5 96.5t100.5 35.5 q61 3 100 -33.5t39 -95.5q0 -61 -39 -97.5t-100 -39.5q-61 0 -100.5 37t-39.5 97z" />
<glyph unicode="&#x202f;" horiz-adv-x="379" />
<glyph unicode="&#x2039;" horiz-adv-x="687" d="M141 644l238 421l167 -86l-192 -337l192 -336l-167 -84z" />
<glyph unicode="&#x203a;" horiz-adv-x="685" d="M141 306l193 336l-193 337l167 86l237 -421l-237 -422z" />
<glyph unicode="&#x205f;" horiz-adv-x="474" />
<glyph unicode="&#x20ac;" horiz-adv-x="1359" d="M127 477l40 140h112q-3 24 -3 46v47v42t3 43h-133l39 140h108q17 106 53.5 197t99.5 159t152 107t211 39q64 0 120.5 -12t108.5 -37t101.5 -62.5t99.5 -86.5l-143 -154q-68 81 -136.5 119.5t-154.5 38.5q-122 0 -187.5 -79t-87.5 -229h483l-40 -140h-457q-1 -21 -1 -43 v-42v-47t1 -46h444l-41 -140h-387q10 -62 28 -117.5t50 -97t79.5 -66.5t115.5 -25q92 0 167 39.5t151 121.5l123 -157q-88 -93 -195.5 -146t-247.5 -53q-119 0 -207 36t-149.5 102t-99 158.5t-54.5 204.5h-166z" />
<glyph unicode="&#x2122;" horiz-adv-x="1370" d="M141 1376v108h425v-108h-149v-420h-127v420h-149zM685 956v528h114l160 -239l157 239h113v-528h-123l1 313l-148 -228l-154 228l3 -313h-123z" />
<glyph unicode="&#xe000;" horiz-adv-x="1152" d="M0 0v1153h1153v-1153h-1153z" />
</font>
</defs>
</svg>
